<svg xmlns="http://www.w3.org/2000/svg" width="21" height="15" viewBox="0 0 21 15">
    <g fill="#000" fill-rule="nonzero">
        <path d="M20.18 4.583h-.82V1.25c0-.69-.553-1.25-1.231-1.25h-2.871c-.679 0-1.23.56-1.23 1.25v3.333h-.821V1.25c0-.69-.552-1.25-1.23-1.25H9.023c-.678 0-1.23.56-1.23 1.25v3.333h-.82V1.25C6.973.56 6.42 0 5.743 0H2.87c-.678 0-1.23.56-1.23 1.25v3.333H.82A.828.828 0 0 0 0 5.417v5.416c0 .23.184.417.41.417h3.486v2.917H2.051a.414.414 0 0 0-.41.416c0 .23.184.417.41.417h3.445c.226 0 .41-.187.41-.417a.414.414 0 0 0-.41-.416h-.78V11.25h5.374v2.917H8.777a.414.414 0 0 0-.41.416c0 .23.184.417.41.417h3.446c.226 0 .41-.187.41-.417a.414.414 0 0 0-.41-.416H10.91V11.25h5.373v2.917h-.78a.414.414 0 0 0-.41.416c0 .23.184.417.41.417h3.446c.226 0 .41-.187.41-.417a.414.414 0 0 0-.41-.416h-1.845V11.25h3.486c.226 0 .41-.187.41-.417V5.417a.828.828 0 0 0-.82-.834zm0 .834V8.75h-.82V5.417h.82zM14.848 8.75v-.833h3.691v.833h-3.691zm0-7.5c0-.23.184-.417.41-.417h2.87c.227 0 .411.187.411.417v5.833h-3.691V1.25zm-.82 4.167V8.75h-.821V5.417h.82zM8.612 8.75v-.833h3.774v.833H8.613zm0-7.5c0-.23.184-.417.41-.417h2.954c.226 0 .41.187.41.417v5.833H8.613V1.25zm-.82 4.167V8.75h-.82V5.417h.82zM2.461 8.75v-.833h3.691v.833H2.461zm0-7.5c0-.23.184-.417.41-.417h2.871c.226 0 .41.187.41.417v5.833H2.461V1.25zM.82 5.417h.82V8.75H.82V5.417zm19.359 5H.82v-.834h19.36v.834z"/>
        <path d="M3.691 2.5h1.23c.227 0 .411-.187.411-.417a.413.413 0 0 0-.41-.416h-1.23a.413.413 0 0 0-.41.416c0 .23.183.417.41.417zM16.078 2.5h1.23c.227 0 .41-.187.41-.417a.413.413 0 0 0-.41-.416h-1.23a.413.413 0 0 0-.41.416c0 .23.184.417.41.417zM9.844 2.5h1.312c.227 0 .41-.187.41-.417a.413.413 0 0 0-.41-.416H9.844a.413.413 0 0 0-.41.416c0 .23.183.417.41.417zM.41 14.167a.414.414 0 0 0-.41.416c0 .23.184.417.41.417.226 0 .41-.187.41-.417a.414.414 0 0 0-.41-.416zM7.137 14.167a.414.414 0 0 0-.41.416c0 .23.184.417.41.417.226 0 .41-.187.41-.417a.414.414 0 0 0-.41-.416zM20.59 14.167a.414.414 0 0 0-.41.416c0 .23.183.417.41.417.226 0 .41-.187.41-.417a.414.414 0 0 0-.41-.416zM13.863 14.167a.414.414 0 0 0-.41.416c0 .23.184.417.41.417.226 0 .41-.187.41-.417a.414.414 0 0 0-.41-.416z"/>
    </g>
</svg>
