<svg xmlns="http://www.w3.org/2000/svg" width="19" height="19" viewBox="0 0 19 19">
    <g fill="#000" fill-rule="nonzero">
        <path d="M18.737 12.177l-2.048-2.048a.767.767 0 0 0-.546-.226.767.767 0 0 0-.547.226l-1.568 1.569-.485-.484.074-.074c.537-.543.397-1.191.04-1.564a1.282 1.282 0 0 0-.615-.356 1.24 1.24 0 0 0-.305-.932 1.325 1.325 0 0 0-.757-.446 1.284 1.284 0 0 0-.276-.922 1.295 1.295 0 0 0-.822-.504 1.145 1.145 0 0 0-.037-.384 1.38 1.38 0 0 0-.955-.945c-.41-.108-.82.009-1.126.32l-.51.518-.99-.99 1.57-1.57a.773.773 0 0 0 0-1.091L6.786.226a.77.77 0 0 0-1.093 0l-1.04 1.039L3.902.51a.373.373 0 0 0-.528 0L.511 3.374a.373.373 0 0 0 0 .527l.753.753-1.04 1.04c-.3.302-.299.792.002 1.092l2.047 2.048c.146.146.34.226.546.226.207 0 .4-.08.546-.226l1.57-1.569.553.554a2.21 2.21 0 0 0-.047.102l-.833 1.548a.373.373 0 0 0-.04.232l.23 1.556-2.506 2.506a.373.373 0 0 0 0 .527l3.065 3.065a.373.373 0 0 0 .527 0l.821-.821a.373.373 0 1 0-.527-.527l-.557.557-2.538-2.538 2.375-2.375a.373.373 0 0 0 .105-.318l-.24-1.619.783-1.455a1.407 1.407 0 0 1 .151-.283l.013-.017a.936.936 0 0 1 .42-.348c.209-.077.456-.047.734.09l1.218.752a.813.813 0 0 1-.063.066c-.354.333-.66.48-.968.455a1.035 1.035 0 0 1-.366-.11.373.373 0 0 0-.419.61c.147.133.501.597.347.904a.373.373 0 1 0 .665.336 1.11 1.11 0 0 0 .118-.43l2.734 2.736-.552.553c-.11.11-.337.253-1.027.223l-.531-.022a.373.373 0 0 0-.03.746l.53.022c.069.003.136.004.2.004.64 0 1.083-.143 1.385-.446l.553-.553.48.48-1.569 1.57a.773.773 0 0 0 0 1.092l2.048 2.05a.77.77 0 0 0 .546.224c.206 0 .4-.08.546-.226l1.04-1.039.753.754a.373.373 0 0 0 .528 0l2.862-2.863a.373.373 0 0 0 0-.527l-.755-.753 1.04-1.04a.773.773 0 0 0 0-1.092zM1.302 3.637l2.335-2.334.49.49-1.165 1.164-1.17 1.17-.49-.49zm1.536 4.67a.027.027 0 0 1-.037 0L.753 6.259a.029.029 0 0 1 0-.038l1.302-1.303L3.49 3.485l2.73-2.73a.028.028 0 0 1 .02-.009c.008 0 .015.002.02.007l2.047 2.048c.01.01.01.028 0 .037L2.838 8.307zM13.5 12.225L12.225 13.5l-.743-.744a18480.65 18480.65 0 0 1-3.167-3.167c.113-.048.226-.108.339-.18.132.204.325.366.564.46.15.059.305.088.46.088 0 .099.012.197.038.295a1.293 1.293 0 0 0 1.132.943c0 .074.006.149.022.224.084.411.407.757.821.88a1.019 1.019 0 0 0 1.035-.261l.292-.294.482.481zm-.413-1.61l-.334.337-.556.561a.275.275 0 0 1-.293.072.444.444 0 0 1-.304-.316c-.03-.148.053-.28.151-.38.034-.029.068-.06.1-.093l.003-.002.812-.815c.11-.096.326-.019.452.113.159.166.148.342-.031.523zm-.92-1.844c.07.082.276.375-.02.67l-.817.822a1.7 1.7 0 0 0-.072.066.486.486 0 0 1-.444.107.543.543 0 0 1-.377-.372c-.044-.169.018-.34.178-.498l.958-.933c.243-.156.487.01.595.138zm-1.053-1.395c.049.063.277.394-.035.697l-.985.96a.564.564 0 0 1-.603.142.44.44 0 0 1-.258-.267c.163-.203.237-.415.208-.61l-.008-.04 1.056-1.055c.258-.133.496.006.625.173zM9.295 5.93c.12-.122.253-.162.405-.122a.63.63 0 0 1 .425.419c.04.151 0 .285-.126.41l-1.098 1.1-.86-.532L9.295 5.93zm-2.864.981a1.541 1.541 0 0 0-.493.303l-.476-.476 1.275-1.276.994.994-.41.416a1.509 1.509 0 0 0-.89.04zm11.23 8.415l-2.335 2.334-.49-.49 2.334-2.334.49.49zm.549-2.585l-1.35 1.35-2.816 2.815-.01.011-1.293 1.293c-.01.01-.029.008-.038 0l-2.046-2.048a.025.025 0 0 1-.008-.019c0-.007.003-.013.008-.018l5.467-5.469a.026.026 0 0 1 .019-.007c.008 0 .014.002.019.007l2.048 2.048a.025.025 0 0 1 .007.019.026.026 0 0 1-.007.018z"/>
        <path d="M7.744 14.926a.373.373 0 0 0-.526.04l-.006.007a.373.373 0 0 0 .566.487l.006-.008a.373.373 0 0 0-.04-.526z"/>
    </g>
</svg>
