<svg xmlns="http://www.w3.org/2000/svg" width="19" height="19" viewBox="0 0 19 19">
    <g fill="#000" fill-rule="nonzero">
        <path d="M15.773 3.318a4.057 4.057 0 0 0-2.178-1.134 4.075 4.075 0 0 0-2.38.295.371.371 0 1 0 .304.678 3.36 3.36 0 0 1 3.73.686c.63.631.978 1.47.978 2.362 0 .892-.348 1.73-.979 2.362a3.344 3.344 0 0 1-4.723 0 3.325 3.325 0 0 1-.707-3.682.371.371 0 1 0-.682-.293 4.077 4.077 0 0 0 .864 4.5 4.07 4.07 0 0 0 2.887 1.193 4.07 4.07 0 0 0 2.886-1.194 4.055 4.055 0 0 0 1.196-2.886c0-1.09-.425-2.116-1.196-2.887z"/>
        <path d="M10.541 3.305a.371.371 0 0 0-.525-.003l-.015.016a.371.371 0 0 0 .524.526l.013-.014a.371.371 0 0 0 .003-.525z"/>
        <path d="M12.887 0a6.12 6.12 0 0 0-6.114 6.113c0 .996.245 1.984.708 2.858a.371.371 0 0 0 .656-.348 5.38 5.38 0 0 1-.621-2.51 5.377 5.377 0 0 1 5.37-5.37 5.377 5.377 0 0 1 5.372 5.37c0 1.246-.436 2.46-1.228 3.419a.364.364 0 0 0-.032.044l-3.335 4.273a2.026 2.026 0 0 0-.707-.127h-.919l-1.058-2.491a1.7 1.7 0 0 0-1.567-1.037h-4.33a1.7 1.7 0 0 0-1.567 1.037l-1.058 2.491h-.421A2.038 2.038 0 0 0 0 15.758v1.898a.371.371 0 0 0 .371.37l1.803-.002c.161.563.68.976 1.294.976a1.35 1.35 0 0 0 1.295-.976h5.933c.162.563.68.976 1.295.976a1.35 1.35 0 0 0 1.295-.976l1.334.003h.001a.371.371 0 0 0 .371-.371v-1.898a2.03 2.03 0 0 0-.688-1.524l3.308-4.237A6.123 6.123 0 0 0 19 6.114 6.12 6.12 0 0 0 12.887 0zm1.168 15.076h-.761l-.193-.603c.402.045.75.275.954.603zm-6.437-4.14h1.794c.386 0 .733.23.884.585l.935 2.201H7.618v-2.786zM.742 15.758c0-.125.018-.246.052-.361h.486a.291.291 0 0 1 0 .582H.742v-.22zm2.726 2.5a.606.606 0 1 1 .002-1.211.606.606 0 0 1-.002 1.21zm3.408-.976H4.763a1.35 1.35 0 0 0-1.295-.976 1.35 1.35 0 0 0-1.294.976l-1.432.002v-.563h.538c.57 0 1.033-.463 1.033-1.033 0-.544-.422-.99-.956-1.03.197-.123.43-.193.679-.193h4.84v2.817zm0-3.56H3.263l.935-2.201a.959.959 0 0 1 .884-.585h1.794v2.786zm5.115 4.536a.606.606 0 1 1 .001-1.211.606.606 0 0 1-.001 1.21zm2.259-.974l-.964-.002a1.35 1.35 0 0 0-1.295-.976 1.35 1.35 0 0 0-1.295.976H7.618v-2.817h4.702l.35 1.095c.049.153.192.258.353.258h1.227v1.466z"/>
        <path d="M13.193 4.057h-1.07a.371.371 0 0 0-.372.37V8.106a.371.371 0 1 0 .742 0V6.94h.7c.795 0 1.442-.647 1.442-1.442 0-.795-.647-1.442-1.442-1.442zm0 2.142h-.7v-1.4h.7a.7.7 0 0 1 0 1.4zM5.782 15.315a.371.371 0 0 0-.371.37v.005a.371.371 0 1 0 .742 0v-.004a.371.371 0 0 0-.371-.371z"/>
    </g>
</svg>
