<svg xmlns="http://www.w3.org/2000/svg" width="19" height="16" viewBox="0 0 19 16">
    <g fill="#000" fill-rule="nonzero">
        <path d="M2.146 11.615a.377.377 0 0 0 .262-.106.36.36 0 0 0 .108-.255.36.36 0 0 0-.108-.256.377.377 0 0 0-.523 0 .36.36 0 0 0-.109.256c0 .095.04.188.109.255a.377.377 0 0 0 .261.106zM12.594 9.23a.377.377 0 0 0 .262-.106.36.36 0 0 0 .108-.255.359.359 0 0 0-.108-.255.377.377 0 0 0-.523 0 .359.359 0 0 0-.109.255c0 .095.04.188.109.255a.378.378 0 0 0 .261.106zM14.075 9.23a.377.377 0 0 0 .261-.106.358.358 0 0 0 0-.51.377.377 0 0 0-.523 0 .359.359 0 0 0-.108.255c0 .095.04.188.108.255a.378.378 0 0 0 .262.106zM12.75 9.78a.355.355 0 0 0 .064.39l.364.39a.374.374 0 0 0 .548 0l.364-.39a.355.355 0 0 0 .064-.39.37.37 0 0 0-.338-.214h-.728a.37.37 0 0 0-.338.215z"/>
        <path d="M18.577 11.001a.366.366 0 0 0-.37.361v.813c0 .635-.37 1.206-.925 1.493v-.717c0-1.15-.576-2.233-1.523-2.9.102-.262.166-.545.185-.84l.61-.43a.916.916 0 0 0 .384-.611.901.901 0 0 0-.18-.696l-.146-.195c-.343-.46-.667-.896-1.481-.896h-3.358c-.815 0-1.139.435-1.481.896-.047.062-.095.128-.147.195a.902.902 0 0 0-.18.696.916.916 0 0 0 .384.611l.611.43c.019.295.083.578.185.84-.3.211-.564.465-.783.75v-.55c0-2.005-1.54-3.665-3.526-3.913.395-.403.64-.948.64-1.55V3.116c.512-.338.85-.91.85-1.559V.494c0-.2-.165-.36-.37-.36H4.681c-.99 0-1.794.785-1.794 1.75V4.79c0 .6.244 1.146.64 1.549C1.54 6.586 0 8.246 0 10.25v5.373c0 .2.166.361.37.361h16.282c.633 0 1.148-.503 1.148-1.12v-.021a.936.936 0 0 0-.171-.538c.791-.41 1.318-1.225 1.318-2.13v-.814c0-.2-.165-.36-.37-.36zm-6.883-1.968c0-1.023.727-1.863 1.643-1.928h.23c.916.065 1.643.905 1.643 1.928 0 1.065-.789 1.932-1.758 1.932-.97 0-1.758-.867-1.758-1.932zm4.319-1.33l.154.205a.2.2 0 0 1-.045.287l-.25.176a2.696 2.696 0 0 0-.705-1.265c.388.009.518.157.846.597zm-5.316.358a.197.197 0 0 1 .04-.153l.154-.205c.327-.44.457-.588.845-.597a2.695 2.695 0 0 0-.704 1.265l-.25-.176a.2.2 0 0 1-.085-.134zM4.043 7.028h2.276l.079.001A1.213 1.213 0 0 1 5.18 8.112c-.636 0-1.16-.477-1.217-1.083h.079zm2.692-3.593v1.354c0 .836-.697 1.517-1.554 1.517-.857 0-1.554-.68-1.554-1.517V3.435h3.108zm-3.108-1.55c0-.568.473-1.03 1.054-1.03h2.905v.701c0 .638-.53 1.156-1.184 1.156H3.627v-.827zM.74 10.25c0-1.503 1.06-2.77 2.49-3.124.107.958.94 1.707 1.95 1.707s1.845-.749 1.952-1.707c1.43.354 2.49 1.62 2.49 3.124v3.743l-.11.077a.945.945 0 0 0-.408.773v.02c0 .14.027.275.075.399h-.593v-4.009c0-.2-.166-.361-.37-.361a.366.366 0 0 0-.37.361v4.009h-5.33v-2.564c0-.2-.165-.362-.37-.362a.366.366 0 0 0-.37.362v2.564H.74v-5.012zm16.32 4.613c0 .22-.183.399-.408.399h-1.44a.404.404 0 0 1-.41-.399c0-.078.041-.15.109-.192l.303-.188a.36.36 0 0 0 .171-.305v-1.57c0-.2-.165-.362-.37-.362a.366.366 0 0 0-.37.361v1.373l-.13.081a.94.94 0 0 0-.453.802c0 .14.027.275.076.399h-1.372c.048-.124.075-.258.075-.399a.94.94 0 0 0-.451-.802l-.132-.081v-1.373c0-.2-.165-.36-.37-.36a.366.366 0 0 0-.37.36v1.571a.36.36 0 0 0 .172.305l.303.188a.225.225 0 0 1 .108.192c0 .22-.183.399-.408.399h-1.44a.404.404 0 0 1-.41-.399v-.02c0-.074.037-.143.098-.186l.266-.185a.359.359 0 0 0 .155-.294v-1.228c0-.886.43-1.724 1.141-2.26.458.607 1.161.996 1.949.996.787 0 1.49-.39 1.949-.997a2.846 2.846 0 0 1 1.14 2.261v1.228c0 .014.002.028.004.042l.001.012.004.021.002.006.003.012.008.028.004.009c.01.025.022.048.036.07l.005.006a.4.4 0 0 0 .084.085c.002 0 .003.002.005.003l.265.185a.227.227 0 0 1 .098.186v.02z"/>
        <path d="M18.577 10.288a.378.378 0 0 0 .262-.106.36.36 0 0 0 .108-.255.36.36 0 0 0-.108-.256.378.378 0 0 0-.523 0 .36.36 0 0 0-.109.256c0 .095.04.188.109.255a.378.378 0 0 0 .261.106zM12.204 3.356c.513.463 1.018.8 1.04.814a.377.377 0 0 0 .416 0 9.915 9.915 0 0 0 1.04-.814c.75-.678 1.116-1.254 1.116-1.762C15.816.715 15.13 0 14.29 0c-.3 0-.592.093-.84.263A1.484 1.484 0 0 0 12.614 0c-.84 0-1.525.715-1.525 1.594 0 .508.365 1.084 1.116 1.762zm.409-2.634c.211 0 .41.093.559.261a.374.374 0 0 0 .56 0 .743.743 0 0 1 .559-.26c.432 0 .784.39.784.871 0 .479-.89 1.309-1.623 1.835-.734-.526-1.624-1.355-1.624-1.835s.352-.872.785-.872z"/>
    </g>
</svg>
