<svg xmlns="http://www.w3.org/2000/svg" width="21" height="21" viewBox="0 0 21 21">
    <g fill="#000" fill-rule="nonzero">
        <path d="M4.594 16.487a1.723 1.723 0 0 0-1.229-.511c-.274 0-.538.064-.776.183-2.342-3.33-2.35-7.893.02-11.231a.413.413 0 0 0-.097-.575.41.41 0 0 0-.572.097 10.482 10.482 0 0 0-1.938 6.288 10.472 10.472 0 0 0 1.959 5.955 1.752 1.752 0 0 0 .176 2.261c.338.34.783.51 1.228.51.445 0 .89-.17 1.23-.51a1.751 1.751 0 0 0 0-2.467zm-.58 1.885a.916.916 0 0 1-1.297 0 .925.925 0 0 1 0-1.303.91.91 0 0 1 .648-.27.91.91 0 0 1 .65.27.925.925 0 0 1 0 1.303zM16.733 18.535a.409.409 0 0 0-.573-.092 9.54 9.54 0 0 1-3.918 1.675 1.122 1.122 0 0 1-1.327-1.107v-3.018h.036a.864.864 0 0 0 .861-.865v-.695a3.711 3.711 0 0 0 2.38-3.463V9.02a1.566 1.566 0 0 0-.206-3.06V3.393c0-.681-.552-1.235-1.23-1.235-.679 0-1.23.554-1.23 1.235v2.553H9.474V3.393c0-.681-.552-1.235-1.23-1.235-.68 0-1.231.554-1.231 1.235V5.96a1.565 1.565 0 0 0-.205 3.06v1.95c0 1.58.99 2.93 2.378 3.463v.695c0 .477.387.865.862.865h.046v3.018a1.945 1.945 0 0 0 2.294 1.917 10.353 10.353 0 0 0 4.252-1.818.413.413 0 0 0 .092-.575zM12.346 3.393c0-.227.184-.412.41-.412.226 0 .41.185.41.412v2.553h-.82V3.393zm-4.512 0c0-.227.184-.412.41-.412.226 0 .41.185.41.412v2.553h-.82V3.393zM6.481 7.511a.74.74 0 0 1 .738-.741h6.562a.74.74 0 0 1 0 1.482H7.22a.74.74 0 0 1-.738-.741zm1.148 3.459V9.075h5.742v1.895a2.88 2.88 0 0 1-2.871 2.882 2.88 2.88 0 0 1-2.871-2.882zm2.887 4.2l-.01-.001h-.457a.041.041 0 0 1-.041-.04v-.487a3.691 3.691 0 0 0 .984 0v.486a.041.041 0 0 1-.04.042h-.436zM17.914 17.42a.409.409 0 0 0-.58.02.413.413 0 0 0 .3.693.408.408 0 0 0 .3-.132.413.413 0 0 0-.02-.582z"/>
        <path d="M20.972 9.788a10.556 10.556 0 0 0-3.047-6.684 10.453 10.453 0 0 0-6.59-3.031 10.535 10.535 0 0 0-6.914 1.892.413.413 0 0 0-.098.574.41.41 0 0 0 .572.099C8.704-.066 14.056.385 17.345 3.687a9.689 9.689 0 0 1 .977 12.598.413.413 0 0 0 .33.655.409.409 0 0 0 .332-.169 10.572 10.572 0 0 0 1.988-6.983zM3.606 3.152a.41.41 0 0 0-.58.002l-.007.007a.413.413 0 0 0 .291.702c.106 0 .211-.04.292-.122l.006-.007a.413.413 0 0 0-.002-.582z"/>
        <path d="M11.425 10.817a.41.41 0 0 0-.355-.204h-.293l.54-.685a.413.413 0 0 0-.067-.578.41.41 0 0 0-.576.067l-1.066 1.352a.413.413 0 0 0 .322.667h.437l-.503.89a.413.413 0 0 0 .357.615.41.41 0 0 0 .357-.209l.85-1.505a.413.413 0 0 0-.003-.41z"/>
    </g>
</svg>
