<svg xmlns="http://www.w3.org/2000/svg" width="17" height="21" viewBox="0 0 17 21">
    <g fill="#000" fill-rule="nonzero">
        <path d="M12.294 18.38a.417.417 0 0 0-.424.41c0 .225.19.409.424.409a.417.417 0 0 0 .424-.41c0-.225-.19-.409-.424-.409z"/>
        <path d="M16.297 14.728a3.781 3.781 0 0 0-1.751-1.355l-3.11-1.188a4.02 4.02 0 0 0 1.282-2.934c0-.44-.071-.87-.212-1.283a.407.407 0 0 0 .212-.354V6.36l.74-1.43.722-.347a.408.408 0 0 0 .234-.367V2.988a.41.41 0 0 0-.29-.388l-1.206-.388L10.006.083A.434.434 0 0 0 9.751 0H7.207a.434.434 0 0 0-.256.083L4.039 2.212 2.833 2.6a.41.41 0 0 0-.29.388v1.228c0 .155.091.297.235.366l.721.349.74 1.429v1.254c0 .148.083.282.213.354a3.938 3.938 0 0 0-.213 1.283c0 1.117.47 2.17 1.282 2.934l-3.11 1.188A3.78 3.78 0 0 0 .66 14.728a3.581 3.581 0 0 0-.66 2.07v3.752c0 .226.19.41.424.41H16.533a.417.417 0 0 0 .425-.41V16.8c0-.742-.229-1.459-.66-2.072zm-3.53-1.154l-2.592 4.15v-1.24c0-.265-.09-.527-.255-.737l-.748-.964c.348-.22.579-.598.579-1.029v-.597c.315-.096.617-.226.902-.39l2.115.807zM4.196 4.443a.417.417 0 0 0-.19-.183l-.614-.297v-.68l.982-.316a.43.43 0 0 0 .122-.062L7.35.82h2.26l2.853 2.086a.43.43 0 0 0 .122.062l.982.316v.68l-.614.297a.417.417 0 0 0-.19.183l-.73 1.41H4.925l-.73-1.41zm.892 2.23h6.783v.645l-1.108.352a7.557 7.557 0 0 1-4.59-.005l-.819-.262a.42.42 0 0 0-.266-.138v-.592zm0 2.578c0-.35.057-.69.167-1.017l.652.208a8.5 8.5 0 0 0 2.568.4 8.43 8.43 0 0 0 2.552-.395l.677-.214c.111.326.167.668.167 1.019a3.243 3.243 0 0 1-1.486 2.71c-.007.003-.013.008-.02.012a3.415 3.415 0 0 1-1.131.471 3.56 3.56 0 0 1-1.508 0 3.418 3.418 0 0 1-1.14-.476 3.244 3.244 0 0 1-1.498-2.718zm3.816 4.073v.43c0 .226-.19.41-.424.41a.429.429 0 0 1-.3-.12.4.4 0 0 1-.124-.29v-.43a4.434 4.434 0 0 0 .848 0zm-2.598-.558c.284.165.586.295.902.39v.598c0 .328.132.637.373.869.063.06.132.115.205.16l-.747.963a1.207 1.207 0 0 0-.255.738v1.24l-2.593-4.15 2.115-.808zM.848 20.14V16.8c0-1.183.736-2.229 1.875-2.664l.667-.255 3.419 5.469.495.791H.848zm8.479-1.06l-.664 1.06h-.369l-.663-1.06v-2.596c0-.089.03-.176.085-.246l.763-.983.763.983c.055.07.085.157.085.246v2.595zm.327 1.06l3.913-6.26.667.255c1.14.435 1.876 1.481 1.876 2.664v3.341H9.654z"/>
        <path d="M8.479 1.76c-.935 0-1.696.735-1.696 1.638 0 .903.76 1.637 1.696 1.637.935 0 1.696-.734 1.696-1.637S9.414 1.76 8.479 1.76zm0 2.456c-.468 0-.848-.367-.848-.818 0-.452.38-.82.848-.82.467 0 .848.368.848.82 0 .451-.38.818-.848.818zM14.838 18.38h-.848a.417.417 0 0 0-.424.41c0 .226.19.409.424.409h.848a.417.417 0 0 0 .424-.41c0-.226-.19-.409-.424-.409z"/>
    </g>
</svg>
