<svg xmlns="http://www.w3.org/2000/svg" width="21" height="19" viewBox="0 0 21 19">
    <g fill="#000" fill-rule="nonzero">
        <path d="M20.804 17.538a1.164 1.164 0 0 0-1.466.002l-.64.513a.355.355 0 0 1-.446 0l-.644-.515a1.164 1.164 0 0 0-1.466.002l-.639.513a.355.355 0 0 1-.447 0l-.639-.513a1.164 1.164 0 0 0-1.466-.002l-.645.517a.355.355 0 0 1-.446 0l-.645-.517a1.164 1.164 0 0 0-1.466.002l-.64.513a.355.355 0 0 1-.446 0l-.645-.516a1.165 1.165 0 0 0-1.465 0l-.644.517a.355.355 0 0 1-.447 0l-.64-.514a1.164 1.164 0 0 0-1.466-.002l-.644.517a.355.355 0 0 1-.447 0l-.646-.518a1.165 1.165 0 0 0-1.464 0 .416.416 0 0 0-.066.58c.14.18.398.21.575.067a.355.355 0 0 1 .446 0l.646.518a1.165 1.165 0 0 0 1.465 0l.644-.517a.355.355 0 0 1 .447 0l.64.515a1.164 1.164 0 0 0 1.466 0l.644-.515a.355.355 0 0 1 .447 0l.645.516A1.164 1.164 0 0 0 9.62 18.7l.64-.514a.355.355 0 0 1 .446 0l.645.516a1.169 1.169 0 0 0 1.464 0l.645-.517a.355.355 0 0 1 .447 0l.639.514a1.164 1.164 0 0 0 1.467 0l.639-.513a.355.355 0 0 1 .447 0l.644.515a1.165 1.165 0 0 0 1.466-.001l.64-.514a.355.355 0 0 1 .446 0 .407.407 0 0 0 .575-.067.416.416 0 0 0-.066-.58zM20.804 14.862a1.164 1.164 0 0 0-1.466.002l-.64.513a.355.355 0 0 1-.446 0l-.644-.515a1.165 1.165 0 0 0-1.466.001l-.639.514a.355.355 0 0 1-.447 0l-.639-.514a1.164 1.164 0 0 0-1.466 0l-.645.516a.355.355 0 0 1-.446 0l-.645-.517a1.165 1.165 0 0 0-1.466.001l-.64.514a.355.355 0 0 1-.446 0l-.645-.516a1.165 1.165 0 0 0-1.465 0l-.644.517a.355.355 0 0 1-.447 0l-.64-.514a1.164 1.164 0 0 0-1.466-.002l-.644.516a.355.355 0 0 1-.447 0l-.646-.517a1.165 1.165 0 0 0-1.464 0 .416.416 0 0 0-.066.58c.14.18.398.21.575.067a.355.355 0 0 1 .446 0l.646.518a1.165 1.165 0 0 0 1.465 0l.644-.517a.355.355 0 0 1 .447 0l.64.515a1.164 1.164 0 0 0 1.466 0l.644-.516a.355.355 0 0 1 .447 0l.645.517a1.164 1.164 0 0 0 1.466-.001l.64-.514a.355.355 0 0 1 .446 0l.645.516a1.169 1.169 0 0 0 1.464 0l.645-.517a.355.355 0 0 1 .447 0l.639.514a1.164 1.164 0 0 0 1.467 0l.639-.513a.355.355 0 0 1 .447 0l.644.515a1.165 1.165 0 0 0 1.466-.001l.64-.514a.355.355 0 0 1 .446 0 .407.407 0 0 0 .575-.067.416.416 0 0 0-.066-.58zM20.804 12.186a1.164 1.164 0 0 0-1.466.002l-.64.513a.355.355 0 0 1-.446 0l-.644-.515a1.164 1.164 0 0 0-1.466.001l-.639.514a.355.355 0 0 1-.447 0l-.639-.514a1.169 1.169 0 0 0-.706-.259V1.94A1.07 1.07 0 0 1 14.775.866a1.07 1.07 0 0 1 1.065 1.073v.744c0 .228.183.413.409.413.226 0 .41-.185.41-.413v-.744c0-1.047-.846-1.9-1.884-1.9a1.894 1.894 0 0 0-1.883 1.9v4.054H5.12V4.836h4.636c.226 0 .41-.185.41-.413a.411.411 0 0 0-.41-.413H5.12V1.94A1.07 1.07 0 0 1 6.184.865a1.07 1.07 0 0 1 1.064 1.073v.744c0 .228.184.413.41.413.226 0 .409-.185.409-.413v-.744c0-1.047-.845-1.9-1.883-1.9A1.894 1.894 0 0 0 4.3 1.94v10.008c-.325-.06-.67.019-.945.24l-.644.515a.355.355 0 0 1-.447 0l-.646-.517a1.165 1.165 0 0 0-1.464 0 .416.416 0 0 0-.066.58c.14.18.398.209.575.067a.355.355 0 0 1 .446 0l.646.517a1.165 1.165 0 0 0 1.464 0l.645-.516a.355.355 0 0 1 .447 0l.64.515a1.164 1.164 0 0 0 1.466 0l.644-.516a.355.355 0 0 1 .447 0l.645.517a1.164 1.164 0 0 0 1.466-.002l.64-.513a.355.355 0 0 1 .446 0l.645.516a1.169 1.169 0 0 0 1.464 0l.645-.517a.355.355 0 0 1 .447 0l.639.514a1.164 1.164 0 0 0 1.467 0l.639-.513a.355.355 0 0 1 .447 0l.644.515a1.165 1.165 0 0 0 1.466-.001l.64-.514a.355.355 0 0 1 .446 0 .407.407 0 0 0 .575-.067.416.416 0 0 0-.066-.58zm-7.912.047l-.586.47a.355.355 0 0 1-.446 0l-.645-.517a1.165 1.165 0 0 0-1.466.001l-.64.514a.355.355 0 0 1-.446 0l-.645-.516a1.165 1.165 0 0 0-1.465 0l-.644.517a.355.355 0 0 1-.447 0l-.35-.282a.418.418 0 0 0 .008-.08V8.802h7.772v1.146h-4.61a.411.411 0 0 0-.409.413c0 .228.184.413.41.413h4.61v1.46zm0-4.258H5.12V6.82h7.772v1.156z"/>
        <path d="M6.826 10.068a.41.41 0 0 0-.58 0 .418.418 0 0 0 0 .584.41.41 0 0 0 .29.121.41.41 0 0 0 .41-.413.419.419 0 0 0-.12-.292zM11.792 4.13a.41.41 0 0 0-.289-.12.41.41 0 0 0-.41.413.41.41 0 0 0 .41.413.41.41 0 0 0 .41-.413.418.418 0 0 0-.12-.292z"/>
    </g>
</svg>
