<?xml version="1.0" ?>
<!-- Uploaded to: SVG Repo, www.svgrepo.com, Generator: SVG Repo Mixer Tools -->
<svg fill="#000000" width="800px" height="800px" viewBox="0 0 64 64" xmlns="http://www.w3.org/2000/svg">
<title/>
<g id="Bank">
<path d="M60,55H59V52a1,1,0,0,0-1-1H57V27h1a1,1,0,0,0,1-1V22a.29.29,0,0,0,0-.09.79.79,0,0,0,0-.2l-.06-.17-.11-.15a.67.67,0,0,0-.14-.15l-.06-.06-26-18a1,1,0,0,0-1.14,0l-26,18-.06.06a.67.67,0,0,0-.14.15l-.11.15-.06.17a.79.79,0,0,0,0,.2A.29.29,0,0,0,5,22v4a1,1,0,0,0,1,1H7V51H6a1,1,0,0,0-1,1v3H4a1,1,0,0,0-1,1v4a1,1,0,0,0,1,1H60a1,1,0,0,0,1-1V56A1,1,0,0,0,60,55Zm-5-4H53V27h2ZM43,51V27h8V51ZM27,51V27H37V51ZM13,51V27h8V51ZM23,27h2V51H23Zm16,0h2V51H39Zm18-2H7V23H57ZM32,5.22,54.8,21H9.2ZM9,27h2V51H9ZM7,53H57v2H7Zm52,6H5V57H59Z"/>
<path d="M27,18H37a1,1,0,0,0,0-2H35.86a4,4,0,0,0-7.72,0H27a1,1,0,0,0,0,2Zm5-3a2,2,0,0,1,1.72,1H30.28A2,2,0,0,1,32,15Z"/>
</g>
</svg>