<?xml version="1.0" encoding="iso-8859-1"?>
<!-- Uploaded to: SVG Repo, www.svgrepo.com, Generator: SVG Repo Mixer Tools -->
<!DOCTYPE svg PUBLIC "-//W3C//DTD SVG 1.1//EN" "http://www.w3.org/Graphics/SVG/1.1/DTD/svg11.dtd">
<svg fill="#000000" height="800px" width="800px" version="1.1" id="Capa_1" xmlns="http://www.w3.org/2000/svg" xmlns:xlink="http://www.w3.org/1999/xlink" 
	 viewBox="0 0 484.909 484.909" xml:space="preserve">
<g>
	<path d="M204.993,438.478c-6.347,6.349-6.347,16.639,0,22.978c3.173,3.174,7.332,4.761,11.488,4.761
		c4.158,0,8.316-1.587,11.489-4.761l49.747-49.754l-22.979-22.978L204.993,438.478z"/>
	<polygon points="317.642,325.807 300.695,342.761 323.671,365.738 363.597,325.807 	"/>
	<path d="M260.77,325.807h-45.954l135.627,135.648c3.173,3.174,7.331,4.761,11.487,4.761c4.158,0,8.315-1.587,11.488-4.761
		c6.349-6.339,6.349-16.629,0-22.978L260.77,325.807z"/>
	<path d="M102.294,107.658c21.471,0,38.878-19.915,38.878-44.478c0-24.564-17.407-44.487-38.878-44.487
		c-21.486,0-38.877,19.923-38.877,44.487C63.417,87.743,80.808,107.658,102.294,107.658z"/>
	<path d="M87.124,123.517v32.269c0,3.396,2.761,6.157,6.157,6.157h18.026c3.396,0,6.156-2.761,6.156-6.157v-32.269
		C107.784,123.454,96.804,123.454,87.124,123.517z"/>
	<path d="M77.762,296.157h-7.173c-6.87,0-12.44-5.57-12.44-12.442v-41.058H41.28l2.714-13.06h30.53V123.66
		c-7.062,0.128-11.934,0.302-12.44,0.539c-5.554,1.365-10.505,4.951-12.885,10.656L1.421,250.377
		c-3.937,9.521,0.586,20.439,10.107,24.382c2.332,0.958,4.76,1.42,7.14,1.42c7.315,0,14.266-4.34,17.249-11.537l1.635-3.966
		l-11.251,54.167c-0.856,4.109,0.192,8.386,2.825,11.639c2.65,3.253,6.617,5.141,10.822,5.141h13.076v112.196
		c0,12.369,10.028,22.398,22.389,22.398c12.361,0,22.39-10.029,22.39-22.398V331.622h8.982v112.196
		c0,12.369,10.029,22.398,22.39,22.398c12.361,0,22.39-10.029,22.39-22.398V331.622h13.076c4.205,0,8.171-1.888,10.821-5.141
		c0.159-0.198,0.19-0.468,0.334-0.674h-63.789C94.582,325.807,80.255,312.889,77.762,296.157z"/>
	<path d="M130.064,229.597h30.515l2.714,13.06h-16.819v13.662h57.838c-0.127-1.992-0.349-3.999-1.158-5.942l-47.778-115.521
		c-2.365-5.705-7.316-9.291-12.869-10.663c-0.508-0.231-5.379-0.413-12.441-0.533V229.597z"/>
	<path d="M466.406,272.568h-14.13c4.088-4.887,6.552-11.18,6.552-18.05c0-15.549-12.604-28.154-28.153-28.154
		c-15.549,0-28.154,12.605-28.154,28.154c0,6.87,2.464,13.163,6.553,18.05h-22.131c4.089-4.887,6.553-11.18,6.553-18.05
		c0-15.549-12.604-28.154-28.154-28.154c-15.549,0-28.153,12.605-28.153,28.154c0,6.87,2.464,13.163,6.553,18.05h-22.491
		c4.088-4.887,6.552-11.18,6.552-18.05c0-2.477-0.322-4.877-0.923-7.165c-1.349-5.322-4.256-10.023-8.209-13.587
		c-5.01-4.595-11.688-7.402-19.022-7.402c-15.549,0-28.154,12.605-28.154,28.154c0,6.87,2.464,13.163,6.553,18.05H112.007
		c-10.22,0-18.504,8.284-18.504,18.495c0,10.211,8.284,18.495,18.504,18.495h354.399c10.22,0,18.503-8.284,18.503-18.495
		C484.909,280.852,476.626,272.568,466.406,272.568z"/>
	<path d="M370.467,205.351c0,15.115,12.25,27.373,27.374,27.373c15.121,0,27.371-12.258,27.371-27.373
		c0-15.115-12.25-27.373-27.371-27.373C382.717,177.978,370.467,190.236,370.467,205.351z"/>
	<path d="M365.342,183.977c15.122,0,27.372-12.258,27.372-27.373c0-15.115-12.25-27.373-27.372-27.373
		c-15.123,0-27.373,12.258-27.373,27.373C337.969,171.718,350.219,183.977,365.342,183.977z"/>
	<path d="M332.844,232.724c15.122,0,27.372-12.258,27.372-27.373c0-15.115-12.25-27.373-27.372-27.373
		c-15.123,0-27.373,12.258-27.373,27.373C305.471,220.465,317.721,232.724,332.844,232.724z"/>
</g>
</svg>