<svg id="Capa_1" enable-background="new 0 0 512 512" height="512" viewBox="0 0 512 512" width="512" xmlns="http://www.w3.org/2000/svg"><g><path d="m93.411 154.732c-4.141 0-7.499 3.357-7.499 7.499v293.788c0 6.34 5.158 11.498 11.498 11.498h317.179c6.34 0 11.498-5.158 11.498-11.498v-400.037c0-6.34-5.158-11.498-11.498-11.498h-317.178c-6.34 0-11.498 5.158-11.498 11.498v70.348c0 4.142 3.357 7.499 7.499 7.499s7.499-3.357 7.499-7.499v-66.848h310.18v393.038h-310.181v-290.289c0-4.142-3.357-7.499-7.499-7.499z"/><path d="m427.143 0h-342.286c-23.946 0-43.428 19.482-43.428 43.429v425.144c0 23.946 19.482 43.428 43.428 43.428h270.411c4.141 0 7.499-3.357 7.499-7.499s-3.357-7.499-7.499-7.499h-270.411c-15.676 0-28.43-12.754-28.43-28.43v-425.144c0-15.677 12.754-28.431 28.43-28.431h342.287c15.676 0 28.43 12.754 28.43 28.431v425.144c0 15.676-12.754 28.43-28.43 28.43h-35.604c-4.141 0-7.499 3.357-7.499 7.499s3.357 7.498 7.499 7.498h35.604c23.946 0 43.428-19.481 43.428-43.428v-425.143c-.001-23.947-19.483-43.429-43.429-43.429z"/><path d="m142.528 174.658c3.021 0 5.87-1.84 7.009-4.832l4.87-12.786h32.933l4.818 12.766c1.462 3.872 5.786 5.83 9.663 4.367 3.875-1.462 5.831-5.788 4.368-9.663l-26.695-70.737c-.026-.068-.053-.136-.081-.203-1.412-3.437-4.724-5.655-8.439-5.655-.002 0-.005 0-.008 0-3.718.003-7.03 2.229-8.438 5.671-.023.056-.045.112-.067.17l-26.94 70.734c-1.933 4.777 1.886 10.258 7.007 10.168zm28.422-61.05 10.731 28.435h-21.561z"/><path d="m367.395 94.153c-.826-4.056-4.289-7.052-8.422-7.285-4.122-.221-7.911 2.353-9.188 6.291-.028.086-.054.172-.079.259l-14.24 49.954-14.761-50.032c-.026-.089-.054-.177-.083-.264-1.318-3.927-5.12-6.466-9.254-6.198-4.132.277-7.564 3.31-8.362 7.462l-12.61 69.866c-.736 4.076 1.972 7.975 6.048 8.711 4.071.729 7.976-1.972 8.711-6.048l8.201-45.439 13.478 45.684c2.267 8.526 15.297 8.461 17.482-.082l13.014-45.652 8.708 45.565c.778 4.068 4.704 6.743 8.773 5.957 4.068-.777 6.735-4.704 5.958-8.773z"/><path d="m247.343 172.506c4.141 0 7.499-3.357 7.499-7.499v-64.245h12.392c4.141 0 7.499-3.357 7.499-7.499s-3.357-7.499-7.499-7.499h-39.621c-4.141 0-7.499 3.357-7.499 7.499s3.357 7.499 7.499 7.499h12.232v64.245c-.001 4.142 3.357 7.499 7.498 7.499z"/><path d="m125.47 218.364v190.379c0 11.193 9.105 20.297 20.297 20.297h127.44c11.193 0 20.298-9.105 20.298-20.297v-190.379c0-11.193-9.105-20.297-20.298-20.297h-127.44c-11.191 0-20.297 9.104-20.297 20.297zm62.767 157.861v-29.578h41.001v29.578zm41.001 14.998v22.82h-41.001v-22.82zm-88.77-44.576h32.772v29.578h-32.772zm103.768 0h34.272v29.578h-34.272zm34.272-14.998h-34.272v-22.612h34.272zm-49.27 0h-41.001v-22.612h41.001zm-55.998 0h-32.772v-22.612h32.772zm-32.772 77.094v-17.521h32.772v22.82h-27.472c-2.923.001-5.3-2.376-5.3-5.299zm132.74 5.3h-28.972v-22.82h34.272v17.521c0 2.922-2.377 5.299-5.3 5.299zm-132.74-195.679c0-2.922 2.378-5.3 5.3-5.3h127.44c2.923 0 5.3 2.378 5.3 5.3v75.676h-138.04z"/><path d="m371.066 368.746h-46.278c-7.56 0-13.711 6.15-13.711 13.711v34.123c0 7.56 6.151 13.711 13.711 13.711h46.278c7.56 0 13.711-6.15 13.711-13.711v-34.123c0-7.561-6.151-13.711-13.711-13.711zm-1.287 46.547h-43.705v-31.55h43.705z"/><path d="m384.777 211.797c0-7.56-6.151-13.712-13.711-13.712h-46.278c-7.56 0-13.711 6.151-13.711 13.712v121.265c0 7.56 6.151 13.711 13.711 13.711h46.278c7.56 0 13.711-6.15 13.711-13.711zm-14.998 119.977h-43.705v-118.691h43.705z"/><path d="m347.927 308.094c4.141 0 7.499-3.357 7.499-7.499v-50.933c0-4.142-3.357-7.499-7.499-7.499s-7.499 3.357-7.499 7.499v50.933c0 4.142 3.357 7.499 7.499 7.499z"/></g></svg>