<svg xmlns="http://www.w3.org/2000/svg" width="21" height="21" viewBox="0 0 21 21">
    <g fill="#000" fill-rule="nonzero">
        <path d="M8.91 15.234a.412.412 0 0 0-.58 0 .412.412 0 0 0 0 .58.414.414 0 0 0 .58 0 .413.413 0 0 0 0-.58z"/>
        <path d="M18.005 7.066H16.59c.51-.508.826-1.21.826-1.986V.41a.41.41 0 0 0-.41-.41h-3.191c-1.11 0-2.011.902-2.011 2.01v3.07c0 .775.316 1.478.825 1.986H8.205c.51-.508.826-1.21.826-1.986V.41A.41.41 0 0 0 8.62 0H5.428C4.321 0 3.42.902 3.42 2.01v3.07c0 .775.316 1.478.825 1.986h-.926A3.322 3.322 0 0 0 0 10.384v5.14c0 .226.184.41.41.41h6.48a.41.41 0 0 0 0-.82H2.676v-2.648a.41.41 0 0 0-.82 0v2.648H.82v-4.73a2.5 2.5 0 0 1 2.498-2.498H4.47L5.815 9.9v2.444a.41.41 0 0 0 .82 0V9.91l1.498-2.024H9.62c1.199 0 2.175.976 2.175 2.175v1.683a.41.41 0 0 0 .82 0V10.06c0-.856-.362-1.628-.94-2.175h1.097l1.414 2.116a.41.41 0 0 0 .67.016l1.58-2.132h1.569c1.199 0 2.175.976 2.175 2.175v1.683a.41.41 0 0 0 .82 0v-1.683a2.999 2.999 0 0 0-2.995-2.995zM4.239 2.011c0-.657.534-1.19 1.19-1.19H8.21v.996c0 .624-.507 1.132-1.132 1.132H4.24V2.01zm2.003 7.051l-.786-1.176h1.656l-.87 1.176zm-.017-1.996A1.988 1.988 0 0 1 4.239 5.08V3.77h2.84c.421 0 .812-.135 1.131-.363V5.08c0 1.095-.89 1.986-1.985 1.986zm6.4-5.055c0-.657.533-1.19 1.19-1.19h2.78v.996c0 .624-.507 1.132-1.132 1.132h-2.839V2.01zm1.92 7.051l-.787-1.176h1.657l-.87 1.176zm.065-1.996a1.988 1.988 0 0 1-1.986-1.986V3.77h2.84c.421 0 .812-.135 1.132-.363V5.08c0 1.095-.891 1.986-1.986 1.986z"/>
        <path d="M19.499 12.817h-1.908v-.789a.98.98 0 0 0-.978-.978h-2.136a.98.98 0 0 0-.978.978v.789H11.59c-.828 0-1.501.673-1.501 1.5V19.5c0 .828.673 1.501 1.5 1.501h7.91c.827 0 1.5-.673 1.5-1.501v-5.181c0-.828-.673-1.501-1.501-1.501zm-5.022-.947h2.136c.087 0 .158.07.158.158v.789h-2.452v-.789c0-.087.07-.158.158-.158zm5.703 7.629c0 .375-.306.68-.681.68h-7.908a.681.681 0 0 1-.68-.68v-2.964h3.542v.067a1.093 1.093 0 0 0 2.184 0v-.067h3.543v2.964zm-4.907-2.897v-.545h.544v.545a.272.272 0 0 1-.544 0zm4.907-.888h-3.543v-.067a.41.41 0 0 0-.41-.41h-1.364a.41.41 0 0 0-.41.41v.067H10.91v-1.396c0-.376.305-.68.68-.68H19.5c.375 0 .68.304.68.68v1.396z"/>
    </g>
</svg>
