<svg xmlns="http://www.w3.org/2000/svg" width="68" height="68" viewBox="0 0 68 68">
    <g fill="none" fill-rule="nonzero">
        <path fill="#FFF" d="M56.408 40.221a9.208 9.208 0 0 0 3.89-7.507V26.86c0-.143-.024-.28-.066-.409-.475-4.708-4.46-8.395-9.289-8.395-5.112 0-9.276 4.133-9.333 9.235-.003.034-.005.07-.005.105v5.318c0 3 1.473 5.803 3.897 7.512a16.814 16.814 0 0 0-6.319 3.93l-.83-3.737a2.84 2.84 0 0 0-2.79-2.238H9.994c-.872 0-1.684.39-2.23 1.07a2.843 2.843 0 0 0-.56 2.407l4.013 18.054H1.322c-.73 0-1.322.591-1.322 1.32v5.285c0 .73.592 1.322 1.322 1.322H66.34c.73 0 1.321-.592 1.321-1.322V56.011c0-7.302-4.71-13.524-11.253-15.79zm-5.465-19.523c2.878 0 5.337 1.827 6.281 4.383l-.014.013a8.841 8.841 0 0 1-6.259 2.62h-6.704v-.266l.003-.052c0-3.693 3.003-6.698 6.693-6.698zm-6.696 12.016v-2.358h6.704c2.406 0 4.766-.78 6.703-2.18v4.538a6.56 6.56 0 0 1-3.324 5.7 6.88 6.88 0 0 1-6.752.003l-.013-.007a6.56 6.56 0 0 1-3.318-5.696zm6.704 9.234c7.757 0 14.067 6.309 14.067 14.063v3.7H42.641l-2.753-12.385a14.126 14.126 0 0 1 11.063-5.378zm-40.05 4.16H24.87a1.321 1.321 0 1 0 0-2.642H10.314l-.529-2.381a.21.21 0 0 1 .042-.181.209.209 0 0 1 .168-.08h25.567c.102 0 .188.069.21.168l4.161 18.72H13.925l-3.024-13.604zm54.117 18.888H2.643v-2.642h62.375v2.642z"/>
        <path fill="#E8C818" d="M30.155 43.466c-.347 0-.688.141-.934.387a1.33 1.33 0 0 0-.387.934c0 .347.141.688.387.934.246.246.587.387.934.387.348 0 .689-.141.936-.387a1.33 1.33 0 0 0 .386-.934c0-.348-.14-.689-.386-.934a1.334 1.334 0 0 0-.936-.387z"/>
        <path fill="#FFF" d="M16.915 33.817c4.519 0 8.766-1.759 11.961-4.953 5.034-5.032 6.378-12.737 3.343-19.171a1.322 1.322 0 0 0-2.391 1.126c2.56 5.43 1.427 11.93-2.82 16.177a14.18 14.18 0 0 1-10.093 4.18 14.18 14.18 0 0 1-10.092-4.18c-5.564-5.563-5.564-14.615 0-20.178 4.22-4.22 10.691-5.367 16.102-2.857a1.322 1.322 0 0 0 1.113-2.397C17.625-1.411 9.955-.05 4.954 4.949c-6.595 6.594-6.595 17.322 0 23.915a16.807 16.807 0 0 0 11.961 4.953z"/>
        <path fill="#E8C818" d="M27.033 18.24h.96a1.321 1.321 0 1 0 0-2.642h-.96a1.321 1.321 0 1 0 0 2.643zM5.838 15.573a1.321 1.321 0 1 0 0 2.642h.96a1.321 1.321 0 1 0 0-2.642h-.96zM15.581 27.022v.96a1.321 1.321 0 0 0 2.643 0v-.96a1.321 1.321 0 0 0-2.643 0zM20.087 21.267A1.32 1.32 0 0 0 21 18.992l-2.764-2.648.012-9.507c.001-.73-.59-1.322-1.32-1.322h-.001c-.73 0-1.32.59-1.322 1.319l-.012 10.071c0 .36.146.706.407.956l3.172 3.038c.256.246.585.368.914.368zM27.942 7.204c.348 0 .688-.14.934-.387.246-.246.387-.586.387-.934a1.33 1.33 0 0 0-.387-.934 1.332 1.332 0 0 0-.934-.387c-.348 0-.689.142-.934.387a1.33 1.33 0 0 0-.388.934c0 .348.142.689.388.934.245.246.586.387.934.387z"/>
    </g>
</svg>
