<svg xmlns="http://www.w3.org/2000/svg" width="21" height="21" viewBox="0 0 21 21">
    <g fill="#000" fill-rule="nonzero">
        <path d="M18.802 11.887h-.529a2.749 2.749 0 0 0 .797-1.937v-.976a2.761 2.761 0 0 0-2.758-2.758 2.761 2.761 0 0 0-2.758 2.758v.6l-1.868-2.36a.881.881 0 0 0-.992-.289.916.916 0 0 0-.194.094.916.916 0 0 0-.194-.094.881.881 0 0 0-.992.289l-1.04 1.31a3.615 3.615 0 0 0-3.578-3.14c-1.99 0-3.61 1.619-3.61 3.609v3.197A2.198 2.198 0 0 0 0 14.085v6.505c0 .226.184.41.41.41h6.84a.41.41 0 0 0 .41-.41l-.001-5.392 2.841-5.013.685 1.208a.41.41 0 0 0 .713-.404l-.973-1.718a.072.072 0 0 1-.01-.036V7.767c0-.015 0-.05.048-.067s.07.011.08.023l2.983 3.767a2.779 2.779 0 0 0 .759.755.41.41 0 0 0 .023.096l1.12 2.957a.41.41 0 0 0 .382.265h.002a.41.41 0 0 0 .382-.26l1.019-2.596h1.09c.759 0 1.377.618 1.377 1.378v6.094h-.897v-5.267a.41.41 0 0 0-.82 0v5.268h-4.302v-5.09a.41.41 0 0 0-.053-.202l-.82-1.446a.41.41 0 0 0-.713.404l.766 1.352v5.392c0 .226.183.41.41.41h6.839a.41.41 0 0 0 .41-.41v-6.505a2.2 2.2 0 0 0-2.198-2.198zM1.907 8.993a2.792 2.792 0 0 1 2.789-2.79 2.792 2.792 0 0 1 2.789 2.79v.529l-.417.526V8.9a.41.41 0 0 0-.41-.41H2.733a.41.41 0 0 0-.41.41v1.436c0 .593.22 1.135.58 1.551h-.706c-.1 0-.196.008-.291.02V8.993zm2.789 2.894a1.553 1.553 0 0 1-1.552-1.551V9.31h3.103v1.025c0 .855-.696 1.551-1.551 1.551zm.544.757l-.544 1.386-.52-1.322h.52c.187 0 .369-.023.544-.064zm4.845-3.409a.072.072 0 0 1-.01.035l-3.183 5.618a.41.41 0 0 0-.054.202l.001 5.09H2.537v-3.287a.41.41 0 0 0-.82 0v3.287H.82v-6.095c0-.553.328-1.03.8-1.25a.406.406 0 0 0 .074-.032 1.37 1.37 0 0 1 .504-.095h1.098l1.018 2.594a.41.41 0 0 0 .764 0l1.106-2.818L8.169 9.98a.412.412 0 0 0 .087-.11l1.701-2.146c.01-.012.032-.04.08-.023s.048.052.048.067v1.468zm6.227-2.198a1.94 1.94 0 0 1 1.929 1.752l-.27-.009a.487.487 0 0 1-.471-.489.41.41 0 0 0-.725-.263 2.164 2.164 0 0 1-1.663.776h-.73a1.94 1.94 0 0 1 1.93-1.767zm.007 6.976l-.512-1.353c.164.031.332.048.505.048h.52l-.513 1.305zm1.93-4.063a1.94 1.94 0 0 1-1.918 1.937h-.025a1.932 1.932 0 0 1-1.4-.606l-.215-.271a1.925 1.925 0 0 1-.316-1.06v-.326h.737c.654 0 1.28-.212 1.792-.596.227.334.604.557 1.04.572l.306.01v.34z"/>
        <path d="M12.542 12.154a.412.412 0 0 0-.58 0 .413.413 0 0 0 0 .58.413.413 0 0 0 .58 0 .413.413 0 0 0 0-.58zM2.417 14.862a.414.414 0 0 0-.58 0 .413.413 0 0 0 0 .58.412.412 0 0 0 .58 0 .413.413 0 0 0 0-.58zM11.774 0c-.46 0-.907.152-1.275.427A2.135 2.135 0 0 0 9.225 0C8.032 0 7.061.997 7.061 2.223c0 .708.537 1.561 1.642 2.609a16.466 16.466 0 0 0 1.558 1.295.41.41 0 0 0 .477 0c.032-.023.789-.567 1.558-1.295 1.105-1.048 1.642-1.901 1.642-2.61C13.938.998 12.967 0 11.774 0zm-1.275 5.284C9.4 4.453 7.881 3.03 7.881 2.223c0-.774.603-1.403 1.344-1.403.37 0 .716.154.972.434a.41.41 0 0 0 .605 0c.256-.28.601-.434.972-.434.74 0 1.343.63 1.343 1.403 0 .806-1.517 2.23-2.618 3.061zM16.957 10.627a.41.41 0 0 0-.58 0 .098.098 0 0 1-.139 0 .41.41 0 0 0-.58.58.916.916 0 0 0 1.299 0 .41.41 0 0 0 0-.58zM5.345 10.627a.41.41 0 0 0-.58 0 .098.098 0 0 1-.139 0 .41.41 0 0 0-.58.58.916.916 0 0 0 1.3 0 .41.41 0 0 0 0-.58z"/>
    </g>
</svg>
