<svg xmlns="http://www.w3.org/2000/svg" width="63" height="68" viewBox="0 0 63 68">
    <g fill="none" fill-rule="nonzero">
        <path fill="#FFF" d="M22.357 31.848v-9.29c0-4.144-2.59-7.694-6.24-9.133a7.135 7.135 0 0 0 2.248-5.198V7.166C18.365 3.214 15.14 0 11.179 0 7.216 0 3.992 3.214 3.992 7.166v1.061c0 2.045.865 3.891 2.247 5.198C2.59 14.864 0 18.415 0 22.559v9.289c0 2.763 1.935 5.082 4.525 5.685v2.88c0 .733.596 1.327 1.33 1.327.735 0 1.331-.594 1.331-1.326v-4.718h7.985v28.323a1.33 1.33 0 0 1-2.662 0V45.35c0-.732-.596-1.327-1.33-1.327a1.33 1.33 0 0 0-1.331 1.327v18.67a1.33 1.33 0 0 1-2.662 0V50.52c0-.733-.596-1.327-1.33-1.327-.735 0-1.331.594-1.331 1.327V64.02a3.99 3.99 0 0 0 6.654 2.964 3.991 3.991 0 0 0 6.654-2.964V37.533c2.589-.603 4.524-2.922 4.524-5.685zM6.654 7.166c0-2.488 2.03-4.512 4.525-4.512 2.494 0 4.524 2.024 4.524 4.512v1.061c0 2.488-2.03 4.512-4.524 4.512-2.496 0-4.525-2.024-4.525-4.512V7.166zm.532 25.876v-5.706a1.33 1.33 0 0 0-1.33-1.327c-.735 0-1.331.594-1.331 1.327v7.406a3.188 3.188 0 0 1-1.863-2.894v-9.29c0-3.95 3.223-7.165 7.186-7.165h2.661c3.962 0 7.187 3.215 7.187 7.166v9.289c0 1.282-.765 2.39-1.864 2.894v-7.406a1.33 1.33 0 0 0-1.33-1.327 1.33 1.33 0 0 0-1.331 1.327v5.706H7.186z"/>
        <path fill="#E8C818" d="M5.855 46.677a1.333 1.333 0 0 0 1.33-1.327 1.33 1.33 0 0 0-2.66 0 1.333 1.333 0 0 0 1.33 1.327z"/>
        <path fill="#FFF" d="M34.72 37.932a6.025 6.025 0 0 0 1.214-3.634c0-3.345-2.73-6.068-6.085-6.068s-6.085 2.723-6.085 6.068c0 1.366.455 2.627 1.221 3.642-3.415.84-5.955 3.92-5.955 7.581v3c0 2.56 1.944 4.675 4.437 4.955v10.61a3.865 3.865 0 0 0 3.867 3.856 3.865 3.865 0 0 0 3.866-3.855v-.038a3.866 3.866 0 0 0 5.072-3.663v-6.91c2.493-.28 4.437-2.396 4.437-4.955v-3c0-3.673-2.558-6.76-5.99-7.589zm-4.87-7.047a3.423 3.423 0 0 1 3.423 3.414 3.423 3.423 0 0 1-3.424 3.414 3.422 3.422 0 0 1-3.423-3.414 3.422 3.422 0 0 1 3.423-3.414zm8.197 17.636c0 1.092-.758 2.009-1.776 2.262V45.61c0-.732-.596-1.326-1.33-1.326-.735 0-1.331.594-1.331 1.326v14.777a1.205 1.205 0 0 1-2.41 0v-6.702a1.33 1.33 0 0 0-1.33-1.327c-.736 0-1.331.594-1.331 1.327v10.402a1.205 1.205 0 0 1-2.41 0V45.61a1.33 1.33 0 0 0-1.331-1.327c-.735 0-1.33.594-1.33 1.327v5.172a2.337 2.337 0 0 1-1.777-2.262v-3c0-2.843 2.32-5.155 5.17-5.155h6.016c2.85 0 5.17 2.312 5.17 5.155v3z"/>
        <path fill="#FFF" d="M59.07 18.069v-7.453c0-5.122-4.18-9.289-9.316-9.289-5.136 0-9.315 4.167-9.315 9.289v7.481a8.977 8.977 0 0 0-3.177 6.85v6.47c0 3.127 2.302 5.728 5.306 6.206v12.898c0 .642.457 1.177 1.065 1.3v12.405a3.725 3.725 0 0 0 6.121 2.843 3.725 3.725 0 0 0 6.122-2.843V51.821a1.328 1.328 0 0 0 1.064-1.3v-2.256c0-.733-.596-1.327-1.33-1.327-.735 0-1.331.594-1.331 1.327v.93h-9.05V26.288a1.33 1.33 0 0 0-1.33-1.327c-.735 0-1.331.594-1.331 1.327v8.62a3.64 3.64 0 0 1-2.645-3.493v-6.469c0-3.502 2.858-6.353 6.371-6.353h6.953c3.514 0 6.372 2.85 6.372 6.353v6.47a3.64 3.64 0 0 1-2.679 3.502v-8.63c0-.733-.596-1.327-1.33-1.327-.735 0-1.331.594-1.331 1.327v12.116c0 .733.596 1.327 1.33 1.327.735 0 1.331-.594 1.331-1.327v-.775c3.02-.465 5.34-3.074 5.34-6.214v-6.469a8.98 8.98 0 0 0-3.21-6.878zm-5.856 46.157a1.064 1.064 0 0 1-2.13 0V51.848h2.13v12.378zm-4.79-12.378v12.378a1.064 1.064 0 0 1-2.13 0V51.848h2.13zM43.1 10.616c0-3.658 2.985-6.635 6.654-6.635 3.67 0 6.654 2.977 6.654 6.635v5.895a8.992 8.992 0 0 0-2.228-.523 4.995 4.995 0 0 0 .631-2.436v-1.641a3.075 3.075 0 0 0-3.076-3.068h-3.962a3.075 3.075 0 0 0-3.075 3.068v1.641c0 .885.23 1.717.633 2.44a8.998 8.998 0 0 0-2.23.532v-5.908zm4.259 2.936v-1.641c0-.228.186-.414.414-.414h3.962c.229 0 .414.186.414.414v1.641a2.395 2.395 0 0 1-4.79 0z"/>
        <path fill="#E8C818" d="M55.609 42.095c-.35 0-.693.141-.94.388-.249.247-.39.59-.39.938 0 .35.141.692.39.939.247.246.59.388.94.388a1.327 1.327 0 0 0 .94-2.265 1.338 1.338 0 0 0-.94-.388z"/>
    </g>
</svg>
