<svg xmlns="http://www.w3.org/2000/svg" width="21" height="18" viewBox="0 0 21 18">
    <g fill="#000" fill-rule="nonzero">
        <path d="M20.59 3.257h-.001c.258-.34.411-.763.411-1.221C21 .913 20.08 0 18.95 0c-1.132 0-2.052.913-2.052 2.036 0 .458.154.88.412 1.221h-.001a.409.409 0 0 0-.41.407v1.448a11.883 11.883 0 0 0-1.45-.784v-.664a.409.409 0 0 0-.41-.407.409.409 0 0 0-.41.407v.328a11.977 11.977 0 0 0-1.45-.43v-.85a.409.409 0 0 0-.41-.406.409.409 0 0 0-.41.407v.69c-.479-.076-.962-.122-1.449-.138v-1.23a.409.409 0 0 0-.41-.406.409.409 0 0 0-.41.407v1.229c-.487.016-.97.062-1.45.137v-.69a.409.409 0 0 0-.41-.406.409.409 0 0 0-.41.407v.848a11.998 11.998 0 0 0-1.449.43v-.327a.409.409 0 0 0-.41-.407.409.409 0 0 0-.41.407v.664c-.5.227-.985.489-1.45.783V3.664a.409.409 0 0 0-.41-.407c.257-.34.41-.763.41-1.221C4.102.913 3.182 0 2.052 0 .92 0 0 .913 0 2.036c0 .458.153.88.411 1.221A.409.409 0 0 0 0 3.664v13.029c0 .225.184.407.41.407H4.964c.227 0 .41-.182.41-.407a.409.409 0 0 0-.41-.407h-.862v-.815h12.796v.815h-.862a.409.409 0 0 0-.41.407c0 .225.183.407.41.407h4.553c.227 0 .411-.182.411-.407V3.664a.409.409 0 0 0-.41-.407zM3.28 16.286H.821V4.07h.82v1.706c0 .225.183.407.41.407.226 0 .41-.182.41-.407V4.071h.82v12.215zM2.051 3.257c-.679 0-1.23-.548-1.23-1.221 0-.674.551-1.222 1.23-1.222.678 0 1.23.548 1.23 1.222 0 .673-.552 1.221-1.23 1.221zm3.5 11.4H4.1V6.092c.465-.326.95-.615 1.45-.864v9.43zm2.27 0H6.37V4.861a10.99 10.99 0 0 1 1.45-.466v10.262zm2.269 0H8.64V4.226c.477-.08.96-.13 1.45-.147v10.578zm2.27 0h-1.45V4.08c.49.018.973.067 1.45.147v10.431zm2.269 0h-1.45V4.395c.494.122.978.277 1.45.466v9.796zm2.27 0h-1.45V5.228c.5.25.985.538 1.45.864v8.565zm3.28 1.629h-2.46V4.07h.82v1.706c0 .225.184.407.41.407.227 0 .41-.182.41-.407V4.071h.82v12.215zM18.95 3.257c-.678 0-1.23-.548-1.23-1.221 0-.674.552-1.222 1.23-1.222.679 0 1.23.548 1.23 1.222 0 .673-.551 1.221-1.23 1.221z"/>
        <path d="M6.152 16.286h-.01a.409.409 0 0 0-.41.407c0 .225.184.407.41.407h.01c.227 0 .41-.182.41-.407a.409.409 0 0 0-.41-.407zM14.857 16.286h-.01a.409.409 0 0 0-.41.407c0 .225.184.407.41.407h.01c.227 0 .41-.182.41-.407a.409.409 0 0 0-.41-.407zM2.05 6.54a.409.409 0 0 0-.41.407v.01c0 .225.184.407.41.407.227 0 .41-.182.41-.407v-.01a.409.409 0 0 0-.41-.407zM18.95 6.54a.409.409 0 0 0-.411.407v.01c0 .225.184.407.41.407.227 0 .41-.182.41-.407v-.01a.409.409 0 0 0-.41-.407z"/>
    </g>
</svg>
