<svg xmlns="http://www.w3.org/2000/svg" width="18" height="21" viewBox="0 0 18 21">
    <g fill="#000" fill-rule="nonzero">
        <path d="M17.536 0H.464a.467.467 0 0 0-.462.472v20.056c0 .26.207.472.462.472H17.536a.467.467 0 0 0 .462-.472V.472A.467.467 0 0 0 17.536 0zm-2.243 20.057H6.496V3.944h3.89v13.03c0 .26.207.472.462.472a.467.467 0 0 0 .462-.472V3.944h3.983v16.113zm1.78 0h-.856V3.472A.467.467 0 0 0 15.755 3H6.034a.467.467 0 0 0-.462.472v16.585H.926V.943h16.148v19.114z"/>
        <path d="M5.2 9.804L3.636 6.67a.461.461 0 0 0-.412-.257c-.173 0-.332.1-.411.257L1.249 9.804a.48.48 0 0 0 .018.46.46.46 0 0 0 .394.225h3.127a.46.46 0 0 0 .394-.225.48.48 0 0 0 .018-.46zm-2.785-.258l.81-1.622.809 1.622h-1.62zM5.182 12.046a.46.46 0 0 0-.394-.226H1.661a.46.46 0 0 0-.394.226.48.48 0 0 0-.018.46l1.564 3.133a.461.461 0 0 0 .411.258c.174 0 .333-.1.412-.258L5.2 12.506a.48.48 0 0 0-.018-.46zm-1.958 2.34l-.81-1.622h1.62l-.81 1.622zM11.3 18.438a.448.448 0 0 0-.068-.17.46.46 0 0 0-.846.262.474.474 0 0 0 .462.472.45.45 0 0 0 .384-.21.506.506 0 0 0 .078-.262.48.48 0 0 0-.01-.092z"/>
    </g>
</svg>
