<svg xmlns="http://www.w3.org/2000/svg" width="18" height="21" viewBox="0 0 18 21">
    <g fill="#231F20" fill-rule="nonzero">
        <path d="M9.026 4.52c-3.043 0-5.529 2.425-5.529 5.393 0 1.552.696 3.046 1.87 4.055.875.853.795 2.677.775 2.696 0 .097.02.175.1.252.06.059.159.097.238.097h5.072c.1 0 .18-.038.239-.097.06-.058.1-.155.1-.252 0-.02-.1-1.843.775-2.696l.06-.059c1.153-1.028 1.83-2.483 1.83-3.996 0-2.968-2.487-5.393-5.53-5.393zm3.183 8.943c-.02.02-.06.058-.06.078-.776.815-.915 2.153-.935 2.793H6.82c-.02-.64-.16-2.037-.995-2.87a4.68 4.68 0 0 1-1.67-3.57c0-2.62 2.167-4.734 4.852-4.734 2.685 0 4.853 2.115 4.853 4.734a4.66 4.66 0 0 1-1.65 3.57z"/>
        <path d="M9.006 5.897a.344.344 0 0 0-.338.33c0 .175.16.33.338.33 2.01 0 3.62 1.59 3.62 3.53 0 .175.16.33.338.33a.344.344 0 0 0 .339-.33c.02-2.308-1.91-4.19-4.297-4.19zM11.214 17.382H6.8a.83.83 0 0 0-.836.815.83.83 0 0 0 .836.815h4.395c.478-.02.856-.369.856-.815a.83.83 0 0 0-.836-.815zm0 .95H6.8a.155.155 0 0 1-.16-.155c0-.097.06-.155.16-.155h4.395c.08 0 .16.058.16.155s-.06.156-.14.156zM10.558 19.341H7.455a.83.83 0 0 0-.835.815.83.83 0 0 0 .835.815h3.103a.83.83 0 0 0 .835-.815.818.818 0 0 0-.835-.815zm0 .95H7.455a.155.155 0 0 1-.16-.154c0-.097.06-.155.16-.155h3.103a.155.155 0 1 1 0 .31zM9.006 2.91a.331.331 0 0 0 .339-.33V.33c0-.175-.16-.33-.339-.33a.344.344 0 0 0-.338.33v2.25c0 .175.16.33.338.33zM14.635 1.668a.326.326 0 0 0-.457.078l-1.273 1.862a.315.315 0 0 0 .08.466.319.319 0 0 0 .457-.097l1.273-1.862c.119-.136.08-.35-.08-.447zM4.969 4.055c.06 0 .12-.02.179-.059a.335.335 0 0 0 .1-.465L4.013 1.649c-.1-.155-.318-.194-.477-.097a.335.335 0 0 0-.1.466l1.234 1.881c.08.117.179.156.298.156zM2.562 6.11L.553 5.045c-.159-.078-.378-.02-.457.136-.1.155-.04.368.14.446l2.008 1.067c.06.02.1.039.16.039a.33.33 0 0 0 .297-.175c.08-.155.02-.369-.139-.446zM17.937 5.18c-.08-.156-.299-.214-.458-.136L15.451 6.11c-.16.077-.22.29-.14.446a.33.33 0 0 0 .299.175c.06 0 .12-.02.159-.04l2.029-1.066c.159-.078.218-.291.139-.446z"/>
    </g>
</svg>
