<svg xmlns="http://www.w3.org/2000/svg" width="93" height="86" viewBox="0 0 93 86">
    <g fill="none" fill-rule="nonzero">
        <path fill="#000" d="M80.462 46.613c-.952 0-1.723.772-1.723 1.723v5.168H55.523v-1.621l5.19-4.054 5.252 3.142a1.744 1.744 0 0 0 2.17-.324l2.574-2.818a1.722 1.722 0 0 0-2.554-2.31l-1.602 1.763-5.049-3.02a1.724 1.724 0 0 0-2.027.102l-4.056 3.1v-7.7h11.416a1.723 1.723 0 1 0 0-3.446H53.799c-.952 0-1.723.771-1.723 1.723v17.125c0 .951.771 1.723 1.723 1.723h26.663c.952 0 1.723-.772 1.723-1.723v-6.89a1.723 1.723 0 0 0-1.723-1.663zM80.462 60.354H53.799a1.723 1.723 0 1 0 0 3.445h26.663a1.723 1.723 0 1 0 0-3.445zM80.462 67.245H53.799a1.723 1.723 0 1 0 0 3.445h26.663a1.723 1.723 0 1 0 0-3.445z"/>
        <ellipse cx="32.145" cy="1.723" fill="#000" rx="1.723" ry="1.723"/>
        <path fill="#000" d="M41.695 5.127A27.004 27.004 0 0 1 56.719 18.24a1.724 1.724 0 0 0 2.96-1.601A30.815 30.815 0 0 0 42.891 1.905a1.724 1.724 0 0 0-1.196 3.222zM4.245 21.32a1.724 1.724 0 0 0 2.271-.891 27.673 27.673 0 0 1 19.14-16.214 1.723 1.723 0 0 0-.81-3.344 31.018 31.018 0 0 0-21.493 18.24c-.342.857.051 1.83.892 2.21zM36.545 58.773a28.7 28.7 0 0 1-22.527-6.262 28.894 28.894 0 0 1-9.671-22.618 1.735 1.735 0 0 0-3.468-.182 32.217 32.217 0 0 0 10.138 24.664 32.248 32.248 0 0 0 25.528 7.844 1.723 1.723 0 1 0 0-3.446zM92.12 37.797l-14.537-14.53a1.785 1.785 0 0 0-1.278-.548H46.662a4.946 4.946 0 0 0-4.947 4.945v52.693a4.946 4.946 0 0 0 4.947 4.945H87.64a4.946 4.946 0 0 0 4.947-4.945V38.973a1.763 1.763 0 0 0-.466-1.176zm-4.48 44H46.662a1.5 1.5 0 0 1-1.5-1.5V27.603a1.5 1.5 0 0 1 1.5-1.5h28.873l13.605 13.6H75.555V31.27a1.723 1.723 0 0 0-3.447 0v10.134a1.722 1.722 0 0 0 1.724 1.722H89.14v37.17a1.5 1.5 0 0 1-1.5 1.5z"/>
        <path fill="#000" d="M36.545 51.781c-10.145 2.2-20.372-3.359-24.038-13.067-3.665-9.708.337-20.635 9.407-25.683 9.07-5.048 20.47-2.694 26.796 5.533.59.742 1.667.868 2.413.284a1.722 1.722 0 0 0 .446-2.29c-7.25-9.514-20.347-12.347-30.884-6.68C10.148 15.546 5.297 28.03 9.245 39.32c3.95 11.29 15.525 18.035 27.3 15.907a1.723 1.723 0 1 0 0-3.446z"/>
        <path fill="#E5C200" d="M33.868 14.004a1.723 1.723 0 0 0-3.447 0v16.558l-6.812 6.81a1.722 1.722 0 1 0 2.433 2.432l7.279-7.377c.328-.327.51-.773.507-1.237l.04-17.186z"/>
    </g>
</svg>
