<svg xmlns="http://www.w3.org/2000/svg" width="93" height="83" viewBox="0 0 93 83">
    <g fill="none" fill-rule="nonzero">
        <path fill="#000" d="M82.197 5.908h2.104v2.11h-2.104zM71.534 5.908h2.104v2.11h-2.104zM76.866 5.908h2.104v2.11h-2.104zM7.699 5.908h56.54v2.11H7.699z"/>
        <path fill="#000" d="M92.018 70.198V.703H.122v69.495H31.41v9.988h-6.173v2.11h41.528v-2.11h-6.173V70.058h31.427v.14zm-2.105-9.425H2.227v-47.55h87.686v47.55zm0-57.96v8.441H2.227v-8.44h87.686zM2.227 68.089v-5.205h87.686v5.205H2.227zm56.26 12.098H33.513V70.058h25.114v10.128h-.14z"/>
        <path fill="#DFBB00" d="M22.57 34.607l-2.525 3.095H13.59l.702 1.547c1.683 3.94 5.611 6.471 9.96 6.471 3.789 0 7.296-1.97 9.26-5.205h7.015v2.251c0 .985.562 1.97 1.403 2.532L45.3 47.69v4.924h2.104v-6.05l-4.49-2.954c-.28-.14-.42-.563-.42-.844V28.84c1.543.422 2.665 1.829 2.665 3.658v7.878h2.105v-4.361c.42.14.841.28 1.262.28a3.38 3.38 0 0 0 2.385-.984 3.38 3.38 0 0 0 4.77 0 3.38 3.38 0 0 0 4.77 0 3.38 3.38 0 0 0 2.386.985c.42 0 .982-.14 1.403-.281v7.174c0 .422-.14.704-.28.985l-.843 1.688c-.28.703-.56 1.547-.56 2.392v5.627h2.104v-5.627c0-.422.14-.985.28-1.407l.842-1.688c.28-.563.421-1.266.421-1.97v-2.673h5.752c3.087 0 5.752-2.532 5.752-5.768 0-3.235-2.525-5.767-5.752-5.767h-5.612c0-1.83-1.543-3.377-3.507-3.377-.561 0-.982.141-1.403.282-.28-1.688-1.684-2.954-3.367-2.954a3.38 3.38 0 0 0-2.385.984 3.38 3.38 0 0 0-4.77 0c-.562-.562-1.544-.984-2.386-.984-1.824 0-3.367 1.547-3.367 3.376v1.688a5.692 5.692 0 0 0-3.788-1.407h-1.122v2.532h-7.015a10.823 10.823 0 0 0-9.26-5.205 10.857 10.857 0 0 0-9.82 6.19l-.702 1.548h6.594l2.525 2.954zm53.173.14c0 1.97-1.543 3.658-3.647 3.658h-5.753V31.231h5.753c2.104-.141 3.647 1.547 3.647 3.516zm-12.767-7.033c.702 0 1.403.562 1.403 1.406v3.658c0 .703-.561 1.407-1.403 1.407-.701 0-1.403-.563-1.403-1.407V29.12c0-.844.702-1.406 1.403-1.406zm-4.77-2.673c.701 0 1.403.562 1.403 1.406V32.778c0 .703-.561 1.407-1.403 1.407-.702 0-1.403-.563-1.403-1.407v-6.33c0-.845.561-1.407 1.403-1.407zm-6.173 1.266c0-.704.561-1.407 1.403-1.407.701 0 1.403.563 1.403 1.407v6.33c0 .704-.561 1.407-1.403 1.407-.702 0-1.403-.563-1.403-1.407v-6.33zm-4.77 0a1.26 1.26 0 0 1 1.262-1.266c.702 0 1.403.562 1.403 1.406v6.331c0 .703-.56 1.407-1.403 1.407a1.26 1.26 0 0 1-1.262-1.266V26.306zm-23.15-.422c3.227 0 6.174 1.829 7.717 4.642l.28.563h8.138v7.174H32.11l-.28.563c-1.543 2.814-4.49 4.642-7.717 4.642-2.946 0-5.612-1.406-7.155-3.798h4.069l4.35-5.064-4.35-5.065h-3.788c1.543-2.25 4.209-3.657 6.874-3.657z"/>
        <path fill="#000" d="M69.991 33.622h2.104v2.11h-2.104z"/>
    </g>
</svg>
