<svg xmlns="http://www.w3.org/2000/svg" width="83" height="83" viewBox="0 0 83 83">
    <g fill="none" fill-rule="nonzero">
        <path fill="#000" d="M83 16.065H56.226V6.694A6.701 6.701 0 0 0 49.532 0H6.694A6.701 6.701 0 0 0 0 6.694v69.612A6.701 6.701 0 0 0 6.694 83h42.838a6.701 6.701 0 0 0 6.694-6.694V64.258H83V16.065zM6.694 2.677h42.838a4.021 4.021 0 0 1 4.016 4.017v1.338H2.678V6.694a4.021 4.021 0 0 1 4.016-4.017zm73.629 58.904H16.065v2.677h37.483v5.355h-5.354v2.677h5.354v4.016a4.021 4.021 0 0 1-4.016 4.017H6.694a4.021 4.021 0 0 1-4.017-4.017V72.29h42.84v-2.677H2.676V10.71h50.871v5.355H8.032v48.193h5.355v-2.677H10.71V18.74h69.613v42.84z"/>
        <path fill="#000" d="M20.081 74.968h16.065v2.677H20.081z"/>
        <path fill="#E8C818" d="M29.452 46.855h10.71V33.468h-10.71v13.387zm2.677-10.71h5.355v8.032h-5.355v-8.032zM24.097 33.468h2.677v13.387h-2.677z"/>
        <path fill="#000" d="M64.258 33.468h-10.71v13.387h10.71V33.468zm-2.677 10.71h-5.355v-8.033h5.355v8.032z"/>
        <path fill="#E8C818" d="M42.839 33.468h2.677v13.387h-2.677z"/>
        <path fill="#000" d="M48.194 33.468h2.677v13.387h-2.677zM66.935 33.468h2.677v13.387h-2.677zM72.29 33.468h2.677v13.387H72.29z"/>
        <path fill="#E8C818" d="M32.129 58.903c4.126 0 8.043-1.322 11.328-3.823l-1.624-2.131a15.888 15.888 0 0 1-9.704 3.277c-8.858 0-16.064-7.206-16.064-16.065 0-8.858 7.206-16.064 16.064-16.064 3.082 0 6.076.88 8.66 2.542l1.449-2.252a18.64 18.64 0 0 0-10.109-2.968c-10.335 0-18.742 8.407-18.742 18.742s8.407 18.742 18.742 18.742z"/>
        <path fill="#000" d="M74.968 21.419h2.677v2.677h-2.677zM56.226 21.419h16.065v2.677H56.226zM74.968 56.226h2.677v2.677h-2.677zM56.226 56.226h16.065v2.677H56.226z"/>
    </g>
</svg>
