<svg xmlns="http://www.w3.org/2000/svg" width="19" height="22" viewBox="0 0 19 22">
    <path fill="#5A5A5A" fill-rule="nonzero" d="M15.559 6.695c1.876 0 3.403-1.502 3.403-3.348C18.962 1.501 17.435 0 15.559 0c-1.877 0-3.404 1.501-3.404 3.347 0 .134.01.268.026.401l-6.374 4.92a3.421 3.421 0 0 0-2.404-.98C1.527 7.688 0 9.19 0 11.035c0 1.846 1.527 3.348 3.403 3.348a3.42 3.42 0 0 0 2.418-.994l6.363 4.54c-.019.14-.028.282-.029.424 0 1.845 1.527 3.347 3.404 3.347 1.876 0 3.403-1.502 3.403-3.347 0-1.846-1.527-3.348-3.403-3.348a3.415 3.415 0 0 0-2.969 1.713l-6.073-4.333a3.286 3.286 0 0 0-.008-2.716l6.078-4.692a3.415 3.415 0 0 0 2.972 1.718zm0 9.532c1.203 0 2.183.954 2.183 2.126s-.98 2.126-2.183 2.126c-1.204 0-2.183-.954-2.183-2.126 0-1.173.98-2.126 2.183-2.126zM3.403 13.162c-1.203 0-2.182-.954-2.182-2.127 0-1.172.979-2.126 2.182-2.126 1.204 0 2.183.954 2.183 2.126 0 1.173-.979 2.127-2.183 2.127zM15.56 1.222c1.203 0 2.183.953 2.183 2.126 0 1.172-.98 2.126-2.183 2.126-1.204 0-2.183-.954-2.183-2.126 0-1.173.98-2.127 2.183-2.127z"/>
</svg>
