<svg xmlns="http://www.w3.org/2000/svg" width="68" height="68" viewBox="0 0 68 68">
    <g fill="none" fill-rule="nonzero">
        <path fill="#E8C818" d="M36.966 60.975H31.1c-.733 0-1.328.593-1.328 1.325s.595 1.326 1.328 1.326h5.866a1.327 1.327 0 0 0 0-2.651zM47.689 10.117a1.34 1.34 0 0 0-.939-.389c-.35 0-.692.142-.939.389-.247.246-.389.588-.389.937a1.331 1.331 0 0 0 1.328 1.325c.35 0 .692-.14.939-.388.247-.247.39-.589.39-.937 0-.349-.143-.69-.39-.937z"/>
        <path fill="#FFF" d="M66.672 20.544c.733 0 1.328-.593 1.328-1.325v-8.165c0-.517-.298-.965-.731-1.183l-.02-.01L47.327.263a1.33 1.33 0 0 0-1.154 0L26.25 9.86a1.325 1.325 0 0 0 0 2.388l7.764 3.74v8.198c0 .063.005.124.014.184h-.37a4.427 4.427 0 0 0-4.425 4.418 4.426 4.426 0 0 0 4.426 4.417h.429c.403 3.757 2.454 7.03 5.415 9.081H27.131c-.777 0-1.511.185-2.162.513V23.236c0-1.19.97-2.158 2.162-2.158h3.431a1.327 1.327 0 0 0 0-2.651h-3.43a4.809 4.809 0 0 0-3.491 1.499 4.809 4.809 0 0 0-3.491-1.5H1.328C.595 18.427 0 19.02 0 19.753v29.031c0 .732.595 1.326 1.328 1.326h1.593V56.6H1.328C.595 56.6 0 57.194 0 57.926v2.386C0 64.552 3.456 68 7.703 68h52.594C64.544 68 68 64.551 68 60.312v-2.386c0-.732-.595-1.326-1.328-1.326h-1.594V37.115a1.327 1.327 0 1 0-2.656 0V56.6H5.577V50.11h40.375c.734 0 1.328-.594 1.328-1.326V44.54c6.32-.26 11.465-5.138 12.13-11.334h.43a4.426 4.426 0 0 0 4.425-4.417 4.427 4.427 0 0 0-4.426-4.418h-.369c.009-.06.014-.121.014-.184v-8.198l5.859-2.822v6.053c0 .732.594 1.325 1.328 1.325zm-32.657 10.01h-.355a1.77 1.77 0 0 1-1.77-1.766 1.77 1.77 0 0 1 1.77-1.766h.355v3.532zM2.656 21.078H20.15c1.192 0 2.163.968 2.163 2.158V42.8a4.797 4.797 0 0 0-2.163-.513H2.656V21.078zM65.344 59.25v1.06c0 2.778-2.264 5.038-5.047 5.038H7.703c-2.783 0-5.047-2.26-5.047-5.037v-1.06h62.688zM2.656 47.458v-2.52H20.15c1.192 0 2.163.968 2.163 2.158 0 .126.018.247.05.362H2.657zM59.485 27.02h.355c.976 0 1.77.793 1.77 1.767a1.77 1.77 0 0 1-1.77 1.766h-.355V27.02zm-14.86 20.437H24.917c.033-.115.052-.236.052-.362 0-1.19.97-2.158 2.162-2.158h17.494v2.52zm12.203-15.617c0 5.546-4.52 10.059-10.078 10.059-5.557 0-10.078-4.513-10.078-10.06v-5.622l9.543 4.19a1.331 1.331 0 0 0 1.07 0l9.543-4.19v5.623zm0-8.52L46.75 27.748 36.672 23.32v-6.054l9.5 4.577a1.33 1.33 0 0 0 1.155 0l9.501-4.577v6.055zM50.485 12.38h10.38L46.75 19.179l-16.866-8.125L46.75 2.93l14.114 6.799H50.485c-.733 0-1.328.593-1.328 1.325s.595 1.326 1.328 1.326z"/>
        <path fill="#E8C818" d="M67.61 24.194a1.34 1.34 0 0 0-.938-.389c-.35 0-.692.142-.94.389-.246.246-.388.588-.388.937 0 .348.142.69.389.937.247.246.59.388.939.388.35 0 .692-.141.939-.388.247-.247.389-.589.389-.937 0-.349-.142-.69-.39-.937zM17.78 33.924a1.342 1.342 0 0 0-.938-.388 1.331 1.331 0 0 0-1.328 1.326 1.328 1.328 0 0 0 2.656 0c0-.349-.142-.691-.39-.938zM11.82 33.538H7.57a1.327 1.327 0 0 0 0 2.651h4.25c.734 0 1.328-.593 1.328-1.325s-.594-1.326-1.328-1.326zM16.842 27.175H7.57a1.327 1.327 0 0 0 0 2.651h9.272c.733 0 1.328-.593 1.328-1.325s-.595-1.326-1.328-1.326z"/>
    </g>
</svg>
