<?xml version="1.0" encoding="iso-8859-1"?>
<!-- Generator: Adobe Illustrator 19.0.0, SVG Export Plug-In . SVG Version: 6.00 Build 0)  -->
<svg version="1.1" id="Capa_1" xmlns="http://www.w3.org/2000/svg" xmlns:xlink="http://www.w3.org/1999/xlink" x="0px" y="0px"
	 viewBox="0 0 496 496" style="enable-background:new 0 0 496 496;" xml:space="preserve">
<g>
	<g>
		<g>
			<path d="M472,0H24C10.768,0,0,10.768,0,24v344h80v-8c0-30.152-13.112-65.968-16-73.496v-27.816
				c9.128-12.728,46.752-75.416,47.936-242.68h272.128C385.248,183.272,422.872,245.952,432,258.68v27.816
				c-2.888,7.528-16,43.344-16,73.496v8h80V24C496,10.768,485.232,0,472,0z M16,264h32v16H16V264z M16,352v-56h34.44
				c3.648,10.168,11.536,34.16,13.232,56H16z M51.912,248H16V24c0-4.416,3.584-8,8-8h71.936
				C94.792,173.096,60.568,234.896,51.912,248z M480,352h-47.672c1.696-21.84,9.576-45.832,13.232-56H480V352z M480,280h-32v-16h32
				V280z M480,248h-35.904c-8.72-13.2-42.896-75.024-44.032-232H472c4.416,0,8,3.584,8,8V248z"/>
			<path d="M152,472c0-13.232-10.768-24-24-24H80c-13.232,0-24,10.768-24,24v8H40v16h128v-16h-16V472z M136,480H72v-8
				c0-4.416,3.584-8,8-8h48c4.416,0,8,3.584,8,8V480z"/>
			<path d="M296,472c0-13.232-10.768-24-24-24h-48c-13.232,0-24,10.768-24,24v8h-16v16h128v-16h-16V472z M280,480h-64v-8
				c0-4.416,3.584-8,8-8h48c4.416,0,8,3.584,8,8V480z"/>
			<path d="M440,472c0-13.232-10.768-24-24-24h-48c-13.232,0-24,10.768-24,24v8h-16v16h128v-16h-16V472z M424,480h-64v-8
				c0-4.416,3.584-8,8-8h48c4.416,0,8,3.584,8,8V480z"/>
			<path d="M152,408c0-13.232-10.768-24-24-24H80c-13.232,0-24,10.768-24,24v8H40v16h128v-16h-16V408z M136,416H72v-8
				c0-4.416,3.584-8,8-8h48c4.416,0,8,3.584,8,8V416z"/>
			<path d="M296,408c0-13.232-10.768-24-24-24h-48c-13.232,0-24,10.768-24,24v8h-16v16h128v-16h-16V408z M280,416h-64v-8
				c0-4.416,3.584-8,8-8h48c4.416,0,8,3.584,8,8V416z"/>
			<path d="M440,408c0-13.232-10.768-24-24-24h-48c-13.232,0-24,10.768-24,24v8h-16v16h128v-16h-16V408z M424,416h-64v-8
				c0-4.416,3.584-8,8-8h48c4.416,0,8,3.584,8,8V416z"/>
			<rect x="96" y="336" width="304" height="16"/>
			<path d="M360,176c0-61.76-50.24-112-112-112s-112,50.24-112,112s50.24,112,112,112S360,237.76,360,176z M152,176
				c0-52.936,43.064-96,96-96c52.936,0,96,43.064,96,96c0,52.936-43.064,96-96,96C195.064,272,152,228.936,152,176z"/>
			<path d="M208,113.864v124.264L311.544,176L208,113.864z M224,142.136L280.456,176L224,209.864V142.136z"/>
			<rect x="448" y="32" width="16" height="16"/>
			<rect x="448" y="64" width="16" height="48"/>
			<rect x="32" y="80" width="16" height="16"/>
			<rect x="32" y="112" width="16" height="48"/>
		</g>
	</g>
</g>
<g>
</g>
<g>
</g>
<g>
</g>
<g>
</g>
<g>
</g>
<g>
</g>
<g>
</g>
<g>
</g>
<g>
</g>
<g>
</g>
<g>
</g>
<g>
</g>
<g>
</g>
<g>
</g>
<g>
</g>
</svg>
