<svg id="Capa_1" enable-background="new 0 0 512 512" height="512" viewBox="0 0 512 512" width="512" xmlns="http://www.w3.org/2000/svg"><g><path d="m393.455 185.374c7.051 0 12.788-5.736 12.788-12.788v-18.885c0-7.052-5.736-12.788-12.788-12.788h-68.743c-7.051 0-12.788 5.736-12.788 12.788v18.885c0 7.052 5.736 12.788 12.788 12.788zm-66.531-29.461h64.318v14.461h-64.318z"/><path d="m236.383 219.654v77.556c0 11.217 9.125 20.342 20.342 20.342h204.716c11.217 0 20.342-9.125 20.342-20.342v-77.556c0-11.217-9.125-20.342-20.342-20.342h-204.716c-11.216.001-20.342 9.126-20.342 20.342zm230.401 0v77.556c0 2.945-2.396 5.342-5.342 5.342h-204.717c-2.945 0-5.342-2.396-5.342-5.342v-77.556c0-2.945 2.396-5.342 5.342-5.342h204.716c2.946.001 5.343 2.397 5.343 5.342z"/><path d="m447.844 112.313h-177.522c-35.375 0-64.156 28.78-64.156 64.156v9.447c0 4.143 3.358 7.5 7.5 7.5s7.5-3.357 7.5-7.5v-9.447c0-27.104 22.051-49.156 49.156-49.156h177.522c27.104 0 49.156 22.052 49.156 49.156v183.367h-18.241c-3.421-14.227-16.235-24.607-31.215-24.614-.005 0-.009 0-.014 0h-.002-177.959-.002c-14.933 0-27.8 10.353-31.229 24.614h-17.171v-138.92c0-4.143-3.358-7.5-7.5-7.5s-7.5 3.357-7.5 7.5v138.753h-159v-294.833h38.43v25.87h-11.65c-7.995 0-14.5 6.505-14.5 14.5v47.792c0 7.995 6.505 14.5 14.5 14.5h103.735c7.995 0 14.5-6.505 14.5-14.5v-47.792c0-7.995-6.505-14.5-14.5-14.5h-11.65v-25.87h97.538c7.444 0 13.5-6.056 13.5-13.5v-32.167c0-7.444-6.056-13.5-13.5-13.5-10.498 0-239.547 0-250.069 0-7.444 0-13.5 6.056-13.5 13.5-.001 4.903-.001 460.861-.001 471.661 0 8.547 6.953 15.5 15.5 15.5h152.794c8.547 0 15.5-6.953 15.5-15.5v-10.401c0-4.143-3.358-7.5-7.5-7.5s-7.5 3.357-7.5 7.5v10.401c0 .275-.224.5-.5.5h-152.794c-.276 0-.5-.225-.5-.5v-62.161h153.794v16.76c0 4.143 3.358 7.5 7.5 7.5s7.5-3.357 7.5-7.5v-16.76h22.872c1.641 0 3.214-.287 4.686-.792 6.669 11.49 19.1 19.239 33.314 19.239h228.834c21.229 0 38.5-17.271 38.5-38.5v-41.28-190.867c0-35.376-28.78-64.156-64.156-64.156zm-.315 272.136c-9.437 0-17.114-7.677-17.114-17.113s7.677-17.114 17.114-17.114 17.114 7.678 17.114 17.114c0 9.173-7.462 17.113-17.114 17.113zm-177.961-34.227c.154 0 .303.019.456.023 9.298.248 16.656 7.877 16.656 17.091 0 9.4-7.656 17.113-17.114 17.113-9.437 0-17.114-7.677-17.114-17.113.001-9.436 7.678-17.114 17.116-17.114zm150.798 0c-6.561 10.371-6.613 23.776 0 34.228h-123.636c6.616-10.46 6.562-23.855 0-34.228zm-243.184-197.724h-102.736v-46.792h102.735v46.792zm-26.151-61.792h-50.435v-25.87h50.435zm111.038-40.87h-214.902v-29.167h214.902zm-247.069-29.167h17.167v339h-17.167zm191.167 393c-13.832 0-185.004 0-191.167 0v-39h191.167v33.947zm290.833-5.053c0 12.958-10.542 23.5-23.5 23.5h-228.833c-12.958 0-23.5-10.542-23.5-23.5v-33.78h17.171c3.457 14.371 16.414 24.614 31.206 24.614h177.986c14.981 0 27.822-10.414 31.229-24.614h18.241z"/><path d="m498.5 459.331c-10.381 0-268.008 0-278.833 0-7.444 0-13.5 6.056-13.5 13.5v20c0 7.444 6.056 13.5 13.5 13.5h278.833c7.444 0 13.5-6.056 13.5-13.5v-20c0-7.444-6.056-13.5-13.5-13.5zm-72.18 15v17h-134.473v-17zm-205.153 0h13.346v17h-13.346zm28.346 17v-17h27.333v17zm191.807 0v-17h27.333v17zm55.68 0h-13.346v-17h13.346z"/></g></svg>