<svg xmlns="http://www.w3.org/2000/svg" width="16" height="21" viewBox="0 0 16 21">
    <g fill="#000" fill-rule="nonzero">
        <path d="M14.703 0H1.297C.582 0 0 .552 0 1.23v18.54C0 20.448.582 21 1.297 21h13.406c.715 0 1.297-.552 1.297-1.23V1.23C16 .552 15.418 0 14.703 0zM8.689.82h3.892v1.163c0 .227-.194.41-.433.41H9.121a.422.422 0 0 1-.432-.41V.82zm6.446 18.95c0 .226-.194.41-.432.41H1.297a.422.422 0 0 1-.432-.41V4.835h7.784a.422.422 0 0 0 .432-.41.422.422 0 0 0-.432-.41H.865V1.23c0-.226.194-.41.432-.41h6.527v1.163c0 .679.582 1.231 1.297 1.231h3.027c.716 0 1.298-.552 1.298-1.23V.82h1.257c.238 0 .432.184.432.41v2.784h-3.027a.422.422 0 0 0-.432.41c0 .227.193.41.432.41h3.027V19.77z"/>
        <path d="M5.622 2.425H3.027a.422.422 0 0 1-.432-.41c0-.227.193-.41.432-.41h2.595c.238 0 .432.183.432.41 0 .226-.194.41-.432.41zM8.014 17.033c-2.623 0-4.757-2.024-4.757-4.512 0-2.488 2.134-4.512 4.757-4.512 1.51 0 2.897.658 3.806 1.805a4.322 4.322 0 0 1 0 5.414c-.908 1.147-2.295 1.805-3.806 1.805zm0-8.204c-2.146 0-3.892 1.656-3.892 3.692 0 2.035 1.746 3.691 3.892 3.691 1.236 0 2.371-.538 3.114-1.476a3.536 3.536 0 0 0 0-4.43C10.385 9.368 9.25 8.83 8.014 8.83zm0 6.563c-1.669 0-3.027-1.288-3.027-2.871S6.345 9.65 8.014 9.65c.746 0 1.463.26 2.019.731a.4.4 0 0 1 .144.306.401.401 0 0 1-.144.306 2.006 2.006 0 0 0-.722 1.528c0 .583.263 1.14.722 1.528a.401.401 0 0 1 .144.306.402.402 0 0 1-.144.306 3.117 3.117 0 0 1-2.019.73zm0-4.922c-1.192 0-2.162.92-2.162 2.05 0 1.132.97 2.052 2.162 2.052a2.25 2.25 0 0 0 1.082-.275 2.782 2.782 0 0 1-.65-1.776c0-.648.233-1.274.65-1.776a2.249 2.249 0 0 0-1.082-.275zM10.38 4.835a.422.422 0 0 1-.433-.41c0-.227.193-.41.432-.41.24 0 .433.183.433.41 0 .226-.194.41-.433.41z"/>
    </g>
</svg>
