<svg xmlns="http://www.w3.org/2000/svg" width="21" height="19" viewBox="0 0 21 19">
    <g fill="#000" fill-rule="nonzero">
        <path d="M18.95.041H2.05C.92.041 0 .965 0 2.101v8.567c0 1.136.92 2.06 2.05 2.06h2.667a.411.411 0 0 0 0-.824H2.05c-.679 0-1.23-.554-1.23-1.236v-.082H20.18v.082c0 .682-.552 1.236-1.23 1.236h-2.78a.411.411 0 0 0 0 .824h2.78c1.13 0 2.05-.924 2.05-2.06V2.101C21 .965 20.08.04 18.95.04zm1.23 6.92H3.61a.411.411 0 0 0 0 .824h16.57v1.977H.82V2.101c0-.682.552-1.236 1.23-1.236h16.9c.678 0 1.23.554 1.23 1.236v4.86z"/>
        <path d="M10.5 11.955a.411.411 0 0 0-.41.412v4.644a.411.411 0 1 0 .82 0v-4.644a.411.411 0 0 0-.41-.412zM10.79 18.203a.412.412 0 0 0-.29-.12.412.412 0 0 0 0 .823.412.412 0 0 0 .29-.703zM18.665 8.372a.412.412 0 0 0-.29-.12.412.412 0 0 0 0 .823.412.412 0 0 0 .29-.703zM17.276 8.372a.412.412 0 1 0 0 .582.416.416 0 0 0 0-.582zM15.886 8.372a.411.411 0 0 0-.58 0 .416.416 0 0 0 0 .582.412.412 0 0 0 .58-.582zM2.443 7.082a.412.412 0 0 0-.29-.12.412.412 0 0 0 0 .823.412.412 0 0 0 .29-.703zM6.941 12.46a.411.411 0 0 0-.41.412V13a6.02 6.02 0 0 1-2.853 5.144.413.413 0 0 0 .216.762c.074 0 .149-.02.216-.062A6.879 6.879 0 0 0 7.35 13v-.128a.411.411 0 0 0-.41-.412zM17.322 18.144A6.02 6.02 0 0 1 14.47 13v-.128a.411.411 0 1 0-.82 0V13a6.88 6.88 0 0 0 3.241 5.845.407.407 0 0 0 .565-.134.413.413 0 0 0-.133-.567zM3.519 15.603l-.545-.316.545-.316a.413.413 0 0 0 .15-.563.41.41 0 0 0-.56-.15l-.546.315v-.632a.411.411 0 1 0-.82 0v.632l-.545-.316a.41.41 0 0 0-.56.151.413.413 0 0 0 .15.563l.545.316-.545.316a.413.413 0 0 0 .205.769c.07 0 .14-.018.205-.056L1.743 16v.632a.411.411 0 1 0 .82 0V16l.546.316a.407.407 0 0 0 .56-.15.413.413 0 0 0-.15-.563z"/>
    </g>
</svg>
