<svg xmlns="http://www.w3.org/2000/svg" width="19" height="17" viewBox="0 0 19 17">
    <g fill="#000" fill-rule="nonzero">
        <path d="M17.887 7.666V3.341A3.344 3.344 0 0 0 14.547 0H11.04a.371.371 0 0 0 0 .742h3.507a2.6 2.6 0 0 1 2.598 2.598v3.935a2.733 2.733 0 0 0-.891-.15h-.074V4.998c0-.791-.644-1.435-1.435-1.435h-4.181c-.422 0-.801.183-1.064.473a1.431 1.431 0 0 0-1.064-.473h-4.18c-.792 0-1.436.644-1.436 1.435v2.128h-.074c-.312 0-.611.053-.89.15V3.34A2.6 2.6 0 0 1 4.452.743h3.581a.371.371 0 0 0 0-.743h-3.58a3.344 3.344 0 0 0-3.34 3.34v4.326A2.744 2.744 0 0 0 0 9.873v4.751c0 .205.166.371.371.371h.742v1.634c0 .205.166.37.371.37H3.49a.371.371 0 0 0 .37-.37v-1.634H15.14v1.634c0 .205.166.37.371.37h2.005a.371.371 0 0 0 .37-.37v-1.634h.743a.371.371 0 0 0 .371-.37V9.872c0-.903-.438-1.706-1.113-2.207zM9.87 4.998c0-.382.31-.693.693-.693h4.18c.383 0 .694.311.694.693v2.128H9.87V4.998zm-6.309 0c0-.382.311-.693.693-.693h4.181c.382 0 .693.311.693.693v2.128H3.563V4.998zm-.444 11.26H1.855v-1.263h1.263v1.262zm14.027 0h-1.263v-1.263h1.263v1.262zm1.113-3.787H3.41a.371.371 0 0 0 0 .743h14.847v1.04h-.733l-.01-.001H.743v-4.38c0-1.105.9-2.004 2.004-2.004H16.254c1.105 0 2.004.899 2.004 2.004v2.598z"/>
        <path d="M9.762.109a.374.374 0 0 0-.524 0 .374.374 0 0 0 0 .525.374.374 0 0 0 .524 0 .373.373 0 0 0 0-.525zM2.195 12.58a.374.374 0 0 0-.525 0 .374.374 0 0 0 0 .525.374.374 0 0 0 .525 0 .374.374 0 0 0 0-.525z"/>
    </g>
</svg>
