<svg xmlns="http://www.w3.org/2000/svg" width="20" height="20" viewBox="0 0 20 20">
    <g fill="#000" fill-rule="nonzero">
        <path d="M19.303 11.734a.674.674 0 0 0 .595-.352.652.652 0 0 0-.036-.69l-.898-1.313a2.444 2.444 0 0 0-2.556-.982l-3.423.846a.997.997 0 0 0-.99-.91V8a.998.998 0 0 0-.664-.939V2.667h.332c.735-.001 1.33-.598 1.331-1.334v-1A.333.333 0 0 0 12.661 0H7.338a.333.333 0 0 0-.332.333v1c0 .736.596 1.333 1.33 1.334h.333V7.06A.998.998 0 0 0 8.004 8v.333a.997.997 0 0 0-.992.942L.726 9a.67.67 0 0 0-.626.354.657.657 0 0 0 .037.691l.899 1.313a2.431 2.431 0 0 0 2.007 1.04c.186 0 .373-.02.555-.062l3.408-.903v.234c0 .237.127.455.332.574V13c.001.736.596 1.333 1.331 1.333h2.662c.734 0 1.33-.597 1.33-1.333v-.76a.665.665 0 0 0 .333-.573v-.263l6.275.33h.034zm-2.742-2.689a1.772 1.772 0 0 1 1.854.71l.888 1.312-6.999-.367.552-.738 3.705-.917zm-8.89-7.712V.667h4.658v.666a.667.667 0 0 1-.666.667H8.336a.667.667 0 0 1-.665-.667zm2.994 1.334V7h-1.33V2.667h1.33zM8.67 8c0-.184.15-.333.333-.333h1.996c.184 0 .332.149.333.333v.333H8.669V8zm-5.23 3.688a1.773 1.773 0 0 1-1.854-.707L.7 9.666l6.992.306-.55.735-3.704.981zM11.995 13a.667.667 0 0 1-.665.667H8.669A.667.667 0 0 1 8.004 13v-.667h3.992V13zm.333-1.333H7.67v-.556l.932-1.244a.334.334 0 0 0-.252-.533l-.674-.03A.33.33 0 0 1 8.004 9h3.992c.184 0 .333.15.333.333v.223l-.932 1.244a.334.334 0 0 0 .249.533l.683.036v.298zM9.667 16.667v3a.333.333 0 1 0 .666 0v-3a.333.333 0 1 0-.666 0zM7.75 15.464l-2.29 1.933a.334.334 0 0 0 .43.51l2.289-1.934a.333.333 0 0 0-.429-.51zM11.742 15.504c-.119.14-.1.35.04.47l2.289 1.933a.334.334 0 0 0 .429-.51l-2.29-1.934a.331.331 0 0 0-.468.04z"/>
    </g>
</svg>
