<svg xmlns="http://www.w3.org/2000/svg" width="13" height="21" viewBox="0 0 13 21">
    <g fill="#000" fill-rule="nonzero">
        <path d="M11.375 0h-9.75C.729 0 0 .736 0 1.64V17.72c0 .904.729 1.64 1.625 1.64h.406v.41c0 .679.547 1.231 1.219 1.231h.406a.817.817 0 0 0 .813-.82v-.82H8.53v.82c0 .452.365.82.813.82h.406c.672 0 1.219-.552 1.219-1.23v-.41h.406c.896 0 1.625-.737 1.625-1.641V1.64C13 .736 12.271 0 11.375 0zM3.656 20.18H3.25a.409.409 0 0 1-.406-.41v-.41h.812v.82zm6.5-.41c0 .226-.182.41-.406.41h-.406v-.82h.812v.41zm2.031-2.051c0 .452-.364.82-.812.82h-9.75a.817.817 0 0 1-.813-.82V7.875h11.376v9.844zm0-10.664H.813V1.64c0-.453.364-.82.812-.82h9.75c.448 0 .813.367.813.82v5.414z"/>
        <path d="M5.289 6.234H2.445a.817.817 0 0 1-.813-.82v-.41c0-.679.547-1.23 1.219-1.23h2.031c.672 0 1.219.551 1.219 1.23v.41c0 .452-.364.82-.812.82zM2.85 4.594a.409.409 0 0 0-.406.41v.41h2.844v-.41a.409.409 0 0 0-.407-.41H2.851zM4.882 11.156H2.851a1.226 1.226 0 0 1-1.219-1.23v-.41c0-.453.365-.82.813-.82h2.844c.448 0 .812.367.812.82v.41c0 .678-.547 1.23-1.219 1.23zm-2.437-1.64v.41c0 .226.182.41.406.41h2.031a.409.409 0 0 0 .407-.41v-.41H2.445zM10.969 17.719a.408.408 0 0 1-.406-.41v-3.282c0-.226.181-.41.406-.41.224 0 .406.184.406.41v3.282c0 .226-.182.41-.406.41zM10.97 12.797a.408.408 0 0 1-.407-.41c0-.227.182-.41.406-.41.225 0 .407.183.407.41 0 .226-.182.41-.406.41z"/>
    </g>
</svg>
