<svg xmlns="http://www.w3.org/2000/svg" width="20" height="21" viewBox="0 0 20 21">
    <g fill="#000" fill-rule="nonzero">
        <path d="M18.696 10.664h-.435V1.23c0-.678-.585-1.23-1.304-1.23h-10c-.24 0-.435.184-.435.41 0 .227.194.41.435.41h10c.24 0 .434.184.434.41v11.895H2.61V1.23c0-.226.195-.41.434-.41.24 0 .435-.183.435-.41 0-.226-.194-.41-.435-.41C2.324 0 1.74.552 1.74 1.23v.41h-.435C.585 1.64 0 2.194 0 2.872v1.64c0 .68.585 1.231 1.304 1.231h.435v10.254c0 .535.364.99.87 1.16v1.301c0 .226.194.41.434.41h.435v1.723c0 .226.195.41.435.41s.435-.184.435-.41v-1.723h.87v1.723c0 .226.194.41.434.41s.435-.184.435-.41v-1.723h.435c.24 0 .435-.184.435-.41v-1.23h.284c.18.477.663.82 1.23.82h3.058c.567 0 1.05-.343 1.23-.82h.284v1.23c0 .226.195.41.435.41h.435v1.723c0 .226.195.41.435.41s.435-.184.435-.41v-1.723h.87v1.723c0 .226.194.41.434.41s.435-.184.435-.41v-1.723h.435c.24 0 .434-.184.434-.41v-1.301c.506-.17.87-.625.87-1.16v-2.05h.435c.719 0 1.304-.553 1.304-1.231v-.82c0-.679-.585-1.231-1.304-1.231zM1.304 4.922c-.24 0-.434-.184-.434-.41v-1.64c0-.227.195-.411.434-.411h.435v2.46h-.435zm4.783 13.125H3.478v-.82h2.609v.82zm7.826 0v-.82h2.609v.82h-2.609zm3.478-3.282h-1.956c-.24 0-.435.184-.435.41 0 .227.195.41.435.41h1.956v.411c0 .226-.195.41-.434.41h-4.558c-.24 0-.435.184-.435.41 0 .226-.195.41-.435.41H8.471c-.24 0-.435-.184-.435-.41 0-.226-.195-.41-.435-.41H3.043c-.24 0-.434-.184-.434-.41v-2.05H17.39v.82zm1.74-2.05c0 .226-.196.41-.435.41h-.435v-1.64h.435c.24 0 .434.183.434.41v.82z"/>
        <path d="M10.112 2.283a.438.438 0 0 0-.533.29c-.178.628-.086 1.04-.005 1.403.074.328.132.587.005 1.031a.408.408 0 0 0 .308.502c.038.01.075.014.113.014.192 0 .367-.12.42-.304.18-.634.087-1.047.005-1.412-.073-.326-.13-.583-.006-1.021a.408.408 0 0 0-.307-.503zM8.26 3.156a.438.438 0 0 0-.532.29c-.178.628-.086 1.04-.005 1.403.074.328.131.587.005 1.031a.408.408 0 0 0 .308.503c.037.009.075.014.112.014.193 0 .368-.121.42-.304.18-.634.088-1.048.006-1.413-.073-.326-.13-.583-.006-1.021a.408.408 0 0 0-.307-.503zM11.963 3.156a.438.438 0 0 0-.532.29c-.179.628-.087 1.04-.005 1.403.073.328.13.587.005 1.031a.408.408 0 0 0 .307.503c.038.009.076.014.113.014.192 0 .368-.121.42-.304.18-.634.087-1.048.005-1.413-.072-.326-.13-.583-.005-1.021a.408.408 0 0 0-.308-.503zM10 11.676c1.13 0 2.05-.868 2.05-1.935 0-1.082-1.105-2.214-1.636-2.758a83.292 83.292 0 0 1-.093-.095.447.447 0 0 0-.321-.134.447.447 0 0 0-.321.134l-.093.095c-.531.544-1.637 1.676-1.637 2.758 0 1.067.92 1.935 2.051 1.935zm0-3.904c.472.499 1.181 1.323 1.181 1.97 0 .614-.53 1.114-1.181 1.114s-1.181-.5-1.181-1.115c0-.646.709-1.47 1.181-1.969zM13.479 15.586c.24 0 .434-.184.434-.41 0-.227-.194-.41-.434-.41s-.435.183-.435.41c0 .226.194.41.435.41zM5 .82c.24 0 .435-.183.435-.41C5.435.184 5.24 0 5 0s-.435.184-.435.41c0 .227.195.41.435.41z"/>
    </g>
</svg>
