<svg xmlns="http://www.w3.org/2000/svg" width="19" height="17" viewBox="0 0 19 17">
    <g fill="#000" fill-rule="nonzero">
        <path d="M9.516 1.979h-.014a.379.379 0 0 0-.37.386c0 .214.165.387.37.387h.014a.379.379 0 0 0 .371-.387.379.379 0 0 0-.37-.386z"/>
        <path d="M18.629 14.652h-.443V3.138c0-.64-.5-1.159-1.113-1.159h-.485V.416a.379.379 0 0 0-.371-.386h-3.563a.379.379 0 0 0-.37.387v1.562h-1.151a.379.379 0 0 0-.371.386c0 .214.166.387.37.387h5.94a.38.38 0 0 1 .372.386v11.514h-5.829a.379.379 0 0 0-.37.386c0 .213.165.386.37.386h6.643v.773H.742v-.773h6.791a.379.379 0 0 0 .371-.386.379.379 0 0 0-.37-.386H1.56V3.138a.38.38 0 0 1 .371-.386h5.954a.379.379 0 0 0 .37-.387.379.379 0 0 0-.37-.386h-1.17V.416a.379.379 0 0 0-.37-.386H2.783a.379.379 0 0 0-.37.387v1.562h-.48c-.615 0-1.114.52-1.114 1.159v11.514H.37a.379.379 0 0 0-.371.386v1.546c0 .213.166.386.371.386H18.63a.379.379 0 0 0 .371-.386v-1.546a.379.379 0 0 0-.371-.386zM15.846 1.979h-2.82V.803h2.82v1.176zM3.154.803h2.82v1.176h-2.82V.803z"/>
        <path d="M9.765 14.765a.367.367 0 0 0-.263-.113.367.367 0 0 0-.262.113.398.398 0 0 0 0 .546c.07.072.165.113.262.113a.367.367 0 0 0 .263-.113.397.397 0 0 0 0-.546zM5.638 4.455h-.702v-.732a.379.379 0 0 0-.372-.386.379.379 0 0 0-.37.386v.732H3.49a.379.379 0 0 0-.371.386c0 .214.166.387.37.387h.703v.731c0 .214.166.387.371.387a.379.379 0 0 0 .372-.387v-.731h.702a.379.379 0 0 0 .371-.387.379.379 0 0 0-.37-.386zM15.51 4.455h-2.148a.379.379 0 0 0-.371.386c0 .214.166.387.37.387h2.148a.379.379 0 0 0 .371-.387.379.379 0 0 0-.37-.386zM12.942 8a.37.37 0 0 0-.331-.212h-2.46L11.358 5a.4.4 0 0 0-.027-.368.368.368 0 0 0-.311-.177H8.716a.371.371 0 0 0-.343.24L6.39 9.766a.4.4 0 0 0 .036.361c.069.107.184.171.308.171h2.67l-.883 3.085a.392.392 0 0 0 .191.457.366.366 0 0 0 .464-.118l3.734-5.319A.4.4 0 0 0 12.942 8zm-3.096 3.458l.41-1.437a.4.4 0 0 0-.058-.341.366.366 0 0 0-.297-.156H7.286l1.68-4.296h1.48L9.237 8.016a.4.4 0 0 0 .027.368c.068.11.186.177.312.177h2.303l-2.034 2.897z"/>
    </g>
</svg>
