<svg xmlns="http://www.w3.org/2000/svg" width="21" height="14" viewBox="0 0 21 14">
    <g fill="#000" fill-rule="nonzero">
        <path d="M19.295 4.064c-.308 0-.597.08-.845.22V1.856c0-1.015-.87-1.841-1.938-1.841H4.447C3.38.015 2.51.84 2.51 1.856v2.428a1.72 1.72 0 0 0-.845-.22C.746 4.064 0 4.774 0 5.645v5.64c0 .741.634 1.344 1.414 1.344h.18v.967a.4.4 0 0 0 .409.39h2.394a.4.4 0 0 0 .41-.39v-.967h11.346v.967a.4.4 0 0 0 .41.39h2.393a.4.4 0 0 0 .41-.39v-.967h.18c.779 0 1.413-.603 1.413-1.343v-5.64c0-.872-.746-1.582-1.664-1.582zM4.447.793h12.065c.617 0 1.12.477 1.12 1.063v4.678a.836.836 0 0 0-.023-.016l-.01-.005a.597.597 0 0 0-.026-.017l-.009-.006a1.314 1.314 0 0 0-.012-.007l-.012-.007-.009-.006-.009-.005a.701.701 0 0 0-.018-.01l-.009-.005-.012-.007-.013-.007-.01-.005a1.908 1.908 0 0 0-.018-.01l-.009-.004a.947.947 0 0 0-.01-.006l-.009-.004a1.603 1.603 0 0 0-.016-.008l-.01-.005-.01-.004-.008-.005-.01-.005c-.004 0-.006-.002-.01-.003a1.947 1.947 0 0 0-.024-.012l-.012-.005-.009-.004-.01-.004-.01-.004-.011-.005c-.003 0-.005-.002-.008-.003a2.485 2.485 0 0 0-.018-.007l-.008-.003a1.513 1.513 0 0 0-.012-.005c-.003 0-.006-.002-.008-.003l-.012-.004-.009-.003a1.307 1.307 0 0 0-.017-.006l-.007-.003a2.051 2.051 0 0 0-.015-.005l-.008-.003a1.061 1.061 0 0 0-.012-.004l-.009-.002-.013-.004-.007-.003a1.58 1.58 0 0 0-.02-.006l-.007-.002a1.328 1.328 0 0 0-.013-.004l-.008-.002-.013-.004-.008-.002a1.74 1.74 0 0 0-.02-.005l-.005-.001-.016-.004-.008-.002-.013-.003-.009-.002a1.64 1.64 0 0 0-.015-.004l-.006-.001-.02-.004-.007-.002-.015-.003-.008-.001-.014-.003a.58.58 0 0 0-.028-.005h-.003a1.54 1.54 0 0 0-.019-.004h-.008l-.014-.003-.008-.001a1.13 1.13 0 0 0-.016-.002l-.006-.001-.021-.003h-.006a1.172 1.172 0 0 0-.024-.003l-.016-.002a.411.411 0 0 0-.028-.002h-.003l-.02-.002h-.007l-.015-.002h-.008l-.017-.001h-.006l-.022-.001h-.005l-.017-.001H11.77h-.023-.003l-.02.001h-.002l-.02.001-.02.002h-.004l-.018.001h-.004l-.02.002h-.003l-.019.003h-.002l-.02.002-.02.003h-.003a2.53 2.53 0 0 0-.018.003h-.005l-.018.003h-.004l-.018.004h-.003l-.018.004h-.002a1.419 1.419 0 0 0-.018.003l-.004.001-.018.004h-.004a1.394 1.394 0 0 0-.017.004l-.004.001a1.267 1.267 0 0 0-.058.014h-.004a1.35 1.35 0 0 0-.017.005l-.005.002-.016.004-.005.001c-.005.002-.01.004-.017.005l-.003.001-.016.005-.003.001-.017.005-.004.002a1.931 1.931 0 0 0-.037.012l-.004.002-.016.005-.004.002-.015.005-.004.002-.015.006-.005.001-.015.006-.005.002-.015.007-.005.002-.016.006a.335.335 0 0 1-.003.002l-.014.006-.005.002a1.685 1.685 0 0 0-.019.008l-.015.007-.004.003-.015.007-.004.002-.016.007-.003.002-.014.007-.003.002-.015.008-.004.002-.015.008-.004.002-.015.008-.003.002-.016.009-.002.002a.96.96 0 0 0-.014.008l-.003.001-.015.01-.004.002-.014.008a.22.22 0 0 0-.017.012.234.234 0 0 0-.021.013 2.672 2.672 0 0 0-.014.009l-.002.002a1.29 1.29 0 0 0-.015.01l-.003.002-.014.01-.003.002a1.676 1.676 0 0 0-.014.01l-.003.002-.014.01-.002.002a3.064 3.064 0 0 0-.03.023l-.002.002-.014.01-.003.003-.013.011-.003.002-.014.012-.014.012-.002.002a1.291 1.291 0 0 0-.014.011l-.002.002a1.263 1.263 0 0 0-.013.012l-.002.002a1.967 1.967 0 0 0-.043.04l-.001.001a1.383 1.383 0 0 0-.013.014l-.002.001-.013.013-.002.002a2 2 0 0 0-.013.013v.001l-.027.029h-.001l-.013.015v.001l-.003.003-.003-.003v-.001a2.184 2.184 0 0 0-.04-.044h-.002a2 2 0 0 0-.013-.014l-.002-.002a4.076 4.076 0 0 0-.012-.013l-.002-.001-.013-.014h-.001a1.636 1.636 0 0 0-.028-.027l-.002-.001a1.967 1.967 0 0 0-.013-.013l-.002-.002a1.263 1.263 0 0 0-.014-.012l-.002-.002a1.91 1.91 0 0 0-.013-.011l-.002-.002a1.3 1.3 0 0 0-.045-.037l-.002-.002a1.792 1.792 0 0 0-.014-.01l-.003-.003a1.262 1.262 0 0 0-.062-.047l-.004-.002-.014-.01-.003-.002-.014-.01-.003-.002-.013-.009-.003-.002a1.715 1.715 0 0 0-.05-.031l-.004-.003-.015-.009-.003-.001a1.295 1.295 0 0 0-.013-.008l-.003-.002a1.844 1.844 0 0 0-.015-.009l-.004-.002a2.666 2.666 0 0 0-.014-.008l-.005-.002-.014-.008-.004-.002a1.863 1.863 0 0 0-.016-.008l-.003-.002a1.555 1.555 0 0 0-.014-.007l-.003-.001-.015-.008-.004-.002-.015-.007-.005-.003-.015-.006a1.685 1.685 0 0 0-.019-.009l-.005-.002-.013-.006-.004-.002-.015-.006-.006-.002a1.678 1.678 0 0 0-.014-.006l-.005-.003a1.256 1.256 0 0 0-.016-.006l-.004-.001-.016-.006-.004-.002-.014-.005-.004-.002a2.691 2.691 0 0 0-.017-.005l-.004-.002a1.877 1.877 0 0 0-.016-.005l-.005-.002-.016-.005a.252.252 0 0 1-.021-.007h-.003a1.226 1.226 0 0 0-.016-.006h-.003a1.21 1.21 0 0 0-.017-.005l-.004-.002a2.683 2.683 0 0 0-.017-.004l-.005-.002a2.11 2.11 0 0 0-.017-.004l-.004-.001-.017-.004-.003-.001-.016-.004h-.004a1.418 1.418 0 0 0-.017-.005h-.005a1.394 1.394 0 0 0-.017-.005h-.004a1.422 1.422 0 0 0-.018-.004h-.004a1.419 1.419 0 0 0-.018-.004h-.001l-.019-.004h-.003a1.344 1.344 0 0 0-.018-.003H9.43a2.16 2.16 0 0 0-.018-.003l-.004-.001-.018-.003h-.004l-.02-.003-.02-.002h-.002l-.02-.002h-.002l-.02-.002H9.3l-.02-.002h-.002l-.02-.001-.02-.002h-.003a1.603 1.603 0 0 0-.043-.001h-.023-4.8l-.022.002H4.34A1.254 1.254 0 0 0 4.3 6.2h-.007l-.02.002H4.27l-.021.002-.007.001-.016.002H4.22l-.017.002-.005.001-.022.003H4.17l-.017.003-.008.001-.014.002-.008.001-.019.003h-.002a1.84 1.84 0 0 0-.022.005l-.007.001c-.005 0-.01.002-.014.003l-.008.001-.015.003-.006.002a1.781 1.781 0 0 0-.021.004l-.006.001-.015.004-.008.002a.866.866 0 0 0-.014.003l-.008.002a2.032 2.032 0 0 0-.021.005l-.02.005-.007.002a1.715 1.715 0 0 0-.014.004l-.008.002-.014.004-.006.002a2.91 2.91 0 0 0-.02.006l-.006.002-.015.005-.008.002a1.662 1.662 0 0 0-.013.005L3.8 6.3l-.016.005a2.783 2.783 0 0 0-.024.008c-.002.002-.004.003-.007.003l-.013.005-.007.003a1.264 1.264 0 0 0-.013.005l-.008.003a1.53 1.53 0 0 0-.025.01l-.013.005-.008.004a1.598 1.598 0 0 0-.012.005l-.007.003-.014.006-.006.002-.018.009-.007.003-.012.005-.008.004-.012.006-.007.003a2.493 2.493 0 0 0-.018.01l-.005.002-.014.007a1.23 1.23 0 0 0-.007.004l-.011.005-.008.005-.012.006-.006.003a2.37 2.37 0 0 0-.017.01l-.008.004a1.575 1.575 0 0 0-.01.006l-.008.005a1.671 1.671 0 0 0-.011.006l-.007.004a1.726 1.726 0 0 0-.017.01l-.005.004a3.315 3.315 0 0 0-.02.012l-.01.007-.008.004-.011.008c-.002 0-.004.002-.006.004a4.71 4.71 0 0 0-.015.01V1.856c0-.586.502-1.063 1.12-1.063zm10.17 7.475h-3.728v-.415c0-.485.415-.88.925-.88h4.701c.616 0 1.116.477 1.116 1.061v1.5H10.89v-.488h3.728a.4.4 0 0 0 .41-.389.4.4 0 0 0-.41-.389zm-11.29-.234c0-.584.501-1.06 1.117-1.06h4.7c.511 0 .926.394.926.88v.414H3.328v-.234zm0 1.012h6.743v.488H3.328v-.488zm.66 4.161H2.412v-.578h1.575v.578zm14.56 0h-1.575v-.578h1.575v.578zm1.594-1.921c0 .312-.268.565-.596.565H1.414c-.328 0-.595-.253-.595-.565v-5.64c0-.444.379-.804.845-.804.466 0 .845.36.845.803v4.278a.4.4 0 0 0 .41.39H18.04a.4.4 0 0 0 .41-.39V5.645c0-.443.378-.803.844-.803.466 0 .846.36.846.803v5.64z"/>
        <path d="M16.652 8.581a.378.378 0 0 0-.174-.247.422.422 0 0 0-.455 0 .388.388 0 0 0-.182.323.365.365 0 0 0 .032.149.388.388 0 0 0 .221.21.43.43 0 0 0 .313 0 .422.422 0 0 0 .184-.143.388.388 0 0 0 .069-.216.364.364 0 0 0-.008-.076z"/>
    </g>
</svg>
