<svg xmlns="http://www.w3.org/2000/svg" width="21" height="17" viewBox="0 0 21 17">
    <g fill="#000" fill-rule="nonzero">
        <path d="M20.507.036H.493a.497.497 0 0 0-.493.5v12.82c0 .277.22.501.493.501h7.493v2.105h-.888a.497.497 0 0 0-.492.501c0 .277.22.501.492.501h6.803a.497.497 0 0 0 .493-.5c0-.277-.22-.502-.493-.502h-.887v-2.105h7.493a.497.497 0 0 0 .493-.5V.537c0-.277-.22-.501-.493-.501zm-8.48 15.926H8.973v-2.105h3.056v2.105zm7.987-6.21h-1.22a.497.497 0 0 0-.493.502c0 .276.22.5.493.5h1.22v2.102H.986v-2.102h14.591a.497.497 0 0 0 .493-.5c0-.277-.22-.501-.493-.501H.986V1.038h19.028v8.715z"/>
        <path d="M17.21 9.753h-.08a.497.497 0 0 0-.493.5c0 .277.221.501.493.501h.08a.497.497 0 0 0 .493-.5c0-.277-.22-.501-.493-.501zM11.781 11.205H9.218a.497.497 0 0 0-.493.5c0 .277.22.502.493.502h2.563a.497.497 0 0 0 .493-.501c0-.277-.22-.5-.493-.5z"/>
    </g>
</svg>
