<svg xmlns="http://www.w3.org/2000/svg" width="84" height="90" viewBox="0 0 84 90">
    <g fill="none" fill-rule="nonzero" opacity=".82">
        <path fill="#FFF" d="M1.588 39.107a6.333 6.333 0 0 0 5.023 2.434 6.392 6.392 0 0 0 3.922-1.35l1.399-1.098-.134 25.055h-.892a3.433 3.433 0 0 0-3.43 3.43v4.691a3.434 3.434 0 0 0 3.43 3.43H40.97a20.774 20.774 0 0 0 3.003 5.411c4.002 5.214 10.064 8.204 16.635 8.204 4.377 0 8.567-1.331 12.113-3.851a21.012 21.012 0 0 0 8.852-17.114c0-7.179-3.625-13.524-9.142-17.305l.062-11.63.873.716a6.387 6.387 0 0 0 4.029 1.436 6.34 6.34 0 0 0 4.934-2.332 6.381 6.381 0 0 0-.891-8.963L71.73 22.32V3.976c0-.957-.776-1.733-1.732-1.733H57.202c-.958 0-1.732.776-1.732 1.733v5.026l-8.401-6.88a6.376 6.376 0 0 0-7.519-.402 6.232 6.232 0 0 0-1.92 1.031L2.67 30.167a6.375 6.375 0 0 0-1.082 8.94zm38.413 33.128h-29.06v-4.623h28.713l-.001.069c-.007.222-.013.444-.013.668 0 .204.005.409.01.614l.006.154c.005.177.015.355.026.532l.004.083c.03.442.073.883.13 1.322a21.81 21.81 0 0 0 .185 1.181zm11.042-22.547a21.011 21.011 0 0 0-3.292 2.109l-.103.079-.211.172c-.085.068-.168.136-.252.207-.041.035-.082.068-.122.104a18.36 18.36 0 0 0-.365.316l-.021.019a20.984 20.984 0 0 0-6.614 11.455v.001h-6.718V44.621c0-.137.119-.256.255-.256h17.19c.136 0 .253.117.253.256v5.067zM78.109 68.35a17.544 17.544 0 0 1-7.393 14.29 17.357 17.357 0 0 1-10.109 3.211c-5.484 0-10.546-2.495-13.891-6.854a17.428 17.428 0 0 1-1.322-1.986 17.418 17.418 0 0 1-1.967-5.317c-.027-.144-.052-.289-.077-.433l-.027-.167a12.444 12.444 0 0 1-.058-.394 20.157 20.157 0 0 1-.067-.573c-.011-.091-.018-.183-.025-.274l-.027-.311c-.006-.117-.011-.235-.018-.352-.003-.08-.009-.161-.011-.241a17.153 17.153 0 0 1-.002-1.12c.001-.046.002-.092.005-.138.005-.131.011-.262.019-.394l.01-.15c.008-.127.019-.256.03-.384.005-.05.008-.099.014-.149.014-.135.028-.27.044-.404l.042-.314c.013-.086.024-.174.039-.26l.041-.248a13.027 13.027 0 0 1 .089-.483c.03-.146.06-.291.094-.436l.009-.042a17.64 17.64 0 0 1 5.657-9.348l.087-.074.271-.227c.064-.051.126-.103.191-.154l.146-.114a17.414 17.414 0 0 1 10.707-3.667c9.648.003 17.499 7.854 17.499 17.507zm-9.131-19.222a20.84 20.84 0 0 0-8.37-1.746c-2.122 0-4.17.318-6.101.906v-3.667a3.723 3.723 0 0 0-3.717-3.72H33.6a3.724 3.724 0 0 0-3.72 3.72v19.528H15.263l.148-27.786L42.67 14.984l26.372 21.604-.064 12.54zM58.935 5.708h9.332v13.774l-9.332-7.643V5.708zM4.806 32.891L39.772 5.474c.294-.234.63-.404.997-.504.199-.055.388-.146.556-.268a2.935 2.935 0 0 1 1.715-.552 2.86 2.86 0 0 1 1.833.652l11.214 9.184a.12.12 0 0 0 .016.016L68.9 24.482l.032.024 10.311 8.444a2.914 2.914 0 0 1 .405 4.092 2.89 2.89 0 0 1-2.252 1.061c-.68 0-1.314-.227-1.834-.652l-31.77-26.026a1.73 1.73 0 0 0-2.167-.023l-29.01 22.753-4.218 3.311c-.512.4-1.13.612-1.787.612a2.89 2.89 0 0 1-2.294-1.108 2.907 2.907 0 0 1 .49-4.079z"/>
        <path fill="#FFF" d="M35.784 27.313v7.219a2.45 2.45 0 0 0 2.449 2.443h7.732a2.448 2.448 0 0 0 2.449-2.443v-7.219a2.448 2.448 0 0 0-2.449-2.443h-7.732a2.45 2.45 0 0 0-2.449 2.443zm3.464 1.021h5.702v5.176h-5.702v-5.176z"/>
        <path fill="#E4C200" d="M56.274 68.318c-1.596-1.596-3.151-1.933-4.176-1.933-1.982 0-3.746 1.242-4.492 3.164-.813 2.095-.205 4.413 1.587 6.051l.019.016 4.848 4.303c.028.025.057.049.086.071 1.151.897 2.167 1.314 3.199 1.314 1.906 0 3.218-1.429 4.606-2.941L73.148 66.18c1.341-1.395 1.7-3.271.959-5.022-.824-1.947-2.818-3.307-4.85-3.307-1.301 0-2.524.561-3.435 1.568l-8.808 9.582-.74-.683zm2.119 4.304l9.99-10.869c.27-.299.548-.438.875-.438.637 0 1.38.536 1.659 1.194.204.479.12.874-.272 1.278l-.032.033-11.214 12.199c-.665.726-1.673 1.822-2.055 1.822-.052 0-.346-.027-1.03-.551l-4.793-4.254c-1.032-.95-.823-1.878-.686-2.234.171-.438.604-.95 1.262-.95.536 0 1.137.323 1.743.935a.96.96 0 0 0 .057.054l2.046 1.885c.339.312.79.475 1.247.456a1.74 1.74 0 0 0 1.203-.56z"/>
    </g>
</svg>
