<svg xmlns="http://www.w3.org/2000/svg" width="1011" height="1011" viewBox="0 0 1011 1011">
    <g fill="none" fill-rule="evenodd" opacity=".037">
        <g fill="#FFF" fill-rule="nonzero">
            <g>
                <path d="M899.904 814.915l-35.662-17.84V423.969c0-116.885-95.1-211.984-211.984-211.984-49.213 0-94.43 17.007-130.452 45.234V81.532C521.806 36.575 485.231 0 440.274 0H81.532C36.575 0 0 36.575 0 81.532v293.516c0 44.957 36.575 81.533 81.532 81.533h107.395l86.31 86.326c7.337 7.305 17.48 11.512 27.835 11.512 21.704 0 39.363-17.66 39.363-39.363V456.58h97.84v340.495l-16.584 8.283c.065-2.103.277-4.223.277-6.343 0-116.885-95.1-211.984-211.984-211.984C95.099 587.032 0 682.132 0 799.016 0 915.901 95.1 1011 211.984 1011c28.129 0 55.833-5.61 81.532-16.306V1011H1011v-16.306c0-76.624-42.576-145.52-111.096-179.78zM735.503 732.73c-11.122-5.56-18.02-16.746-18.02-29.172v-21.182c21.59-17.399 39.593-38.76 53.176-62.73h28.357c11.936 0 22.976-3.458 32.613-9.067v170.207l-96.126-48.056zm-11.79 245.657h-33.347l27.265-92.686 29.97 44.957-23.888 47.73zM556.93 930.642l29.97-44.957 27.249 92.702h-33.347l-23.872-47.745zm-51.089-408.836c.93 22.585 5.398 44.533 12.98 65.226H505.5c-17.986 0-32.613-14.627-32.613-32.613 0-17.986 14.627-32.613 32.613-32.613h.342zm32.27-8.87v-40.082c42.25-.896 82.137-15.996 114.146-43.049 32.01 27.053 71.895 42.153 114.145 43.05v40.08c0 74.505-45.609 142.34-114.145 170.713-68.536-28.357-114.145-96.208-114.145-170.712zm260.562 8.87h.342c17.986 0 32.613 14.627 32.613 32.613 0 17.986-14.627 32.613-32.613 32.613h-13.322c7.566-20.693 12.034-42.641 12.98-65.226zM619.613 704.047c8.626 4.68 17.578 8.904 26.921 12.41l5.724 2.136 5.724-2.153c9.343-3.506 18.295-7.729 26.922-12.409.179 24.378 13.632 46.229 35.254 57.399l-15.833 53.893H600.192l-15.85-53.877c21.638-11.17 35.091-33.02 35.27-57.399zm-64.884 72.287l26.645 90.582-44.843-14.953-8.87-62.095 27.068-13.534zm55.05 71.601h84.941l-38.369 130.452h-8.202l-38.37-130.452zm113.363 18.981l26.645-90.582 27.085 13.534-8.87 62.095-44.86 14.953zm-70.884-622.32c98.899 0 179.371 80.473 179.371 179.372v74.292c-9.637-5.61-20.677-9.066-32.613-9.066v-48.92h-28.65c-40.26 0-78.108-15.67-106.58-44.141l-11.528-11.529-11.529 11.529c-28.47 28.47-66.318 44.141-106.579 44.141H505.5v48.92c-11.936 0-22.976 3.457-32.613 9.066v-74.292c0-98.899 80.472-179.371 179.371-179.371zM309.823 423.969v91.088c0 5.495-7.632 8.642-11.53 4.777l-95.865-95.865H81.532c-26.97 0-48.92-21.949-48.92-48.92V81.532c0-26.97 21.95-48.92 48.92-48.92h358.742c26.971 0 48.92 21.95 48.92 48.92v207.174c-30.526 36.738-48.92 83.88-48.92 135.262H309.823zm163.064 186.61c9.637 5.61 20.677 9.067 32.613 9.067h28.357c13.583 23.97 31.586 45.332 53.175 62.731v21.182c0 12.442-6.897 23.612-18.018 29.172l-96.127 48.056V610.579zm-260.903 367.81c-98.899 0-179.371-80.473-179.371-179.372 0-98.899 80.472-179.37 179.37-179.37 98.9 0 179.372 80.471 179.372 179.37 0 8.17-.718 16.29-1.81 24.33-48.659 29.693-81.793 77.912-92.327 133.158-26.107 14.138-55.312 21.883-85.234 21.883zm207.222-134.3l77.7-38.843 10.192 71.292 38.222 12.735-26.025 39.038 25.047 50.077h-87.761v-65.226h-32.613v65.226h-97.073c5.496-57.53 39.804-108.046 92.311-134.3zm461.342 134.3V913.16h-32.613v65.226h-87.76l25.046-50.093-26.025-39.038 38.222-12.735 10.192-71.292 77.7 38.842c52.507 26.253 86.815 76.77 92.31 134.3h-97.072v.016zm-792.9-779.14l20.366 25.471 22.438-17.953v184.589h260.903v-184.59l22.421 17.938 20.367-25.47-173.24-138.59L87.647 199.25zm205.868 159.494H228.29v-97.839h65.226v97.839zm65.226 0h-32.613V228.29H195.677v130.452h-32.612v-178.05l97.838-78.271 97.839 78.27v178.05zM179.37 717.484v32.613c0 17.986 14.627 32.613 32.613 32.613 35.972 0 65.226 29.253 65.226 65.225v65.226h-48.92v32.613h-32.613v-34.928c-28.047-7.29-48.919-32.597-48.919-62.91h32.613c0 17.986 14.627 32.612 32.613 32.612h32.613v-32.613c0-17.986-14.627-32.612-32.613-32.612-35.972 0-65.226-29.254-65.226-65.226V684.87h48.92v-32.613h32.612v34.928c28.047 7.29 48.92 32.597 48.92 62.91h-32.613c0-17.985-14.627-32.612-32.613-32.612H179.37z" transform="translate(-136 -1668) translate(136 1668)"/>
            </g>
        </g>
    </g>
</svg>
