<svg xmlns="http://www.w3.org/2000/svg" width="88" height="88" viewBox="0 0 88 88">
    <g fill="none" fill-rule="nonzero" opacity=".82">
        <path fill="#E4C200" d="M29.457 20.928l8.744 8.744 1.636-1.636-8.755-8.744c-.338-.338 0-1.523 0-1.523l-5.923-5.1-2.347 2.347 5.111 5.912s1.241-.282 1.534 0zM50.77 34.85l-5.766 5.765 12.534 12.512a2.595 2.595 0 0 0 3.678 0l2.042-2.042a2.595 2.595 0 0 0 0-3.678L50.77 34.85z"/>
        <path fill="#DAB704" d="M58.87 22.812a3.51 3.51 0 1 1-4.964-4.964L59.4 12.41a9.657 9.657 0 0 0-3.892-.891 9.827 9.827 0 0 0-9.748 9.748 9.657 9.657 0 0 0 .891 3.892l-22.835 22.79a3.51 3.51 0 1 0 4.965 4.964l22.823-22.846a9.657 9.657 0 0 0 3.892.89 9.827 9.827 0 0 0 9.748-9.747 9.657 9.657 0 0 0-.936-3.892l-5.438 5.494z"/>
        <path fill="#FFF" d="M74.462.27H13.538C6.061.27 0 6.333 0 13.81v40.615c0 7.477 6.061 13.538 13.538 13.538h21.64l18.886 18.615a3.858 3.858 0 0 0 2.696 1.129 3.182 3.182 0 0 0 1.5-.373 2.91 2.91 0 0 0 1.535-2.978l-.429-16.382h15.096C81.939 67.974 88 61.913 88 54.436V13.82A13.538 13.538 0 0 0 74.462.27zm9.025 54.155a9.026 9.026 0 0 1-9.025 9.025H57.019a2.256 2.256 0 0 0-2.256 2.313l.406 15.558-17.487-17.216a2.256 2.256 0 0 0-1.58-.655H13.539a9.026 9.026 0 0 1-9.025-9.025V13.809a9.026 9.026 0 0 1 9.025-9.025h60.924a9.026 9.026 0 0 1 9.025 9.025v40.616z"/>
    </g>
</svg>
